<?xml version="1.0" encoding="UTF-8" standalone="no"?><!DOCTYPE svg PUBLIC "-//W3C//DTD SVG 1.1//EN" "http://www.w3.org/Graphics/SVG/1.1/DTD/svg11.dtd"><!-- Generated by graphviz version 2.40.1 (20161225.0304)
 --><!-- Title: KNN Pages: 1 --><svg xmlns="http://www.w3.org/2000/svg" xmlns:xlink="http://www.w3.org/1999/xlink" width="1028pt" height="45pt" viewBox="0.00 0.00 1027.77 45.00">
<g id="graph0" class="graph" transform="scale(1 1) rotate(0) translate(4 41)">
<title>KNN</title>
<polygon fill="#ffffff" stroke="transparent" points="-4,4 -4,-41 1023.767,-41 1023.767,4 -4,4"/>
<!-- start -->
<g id="node1" class="node">
<title>start</title>
<polygon fill="none" stroke="#000000" points="0,-.5 0,-36.5 54,-36.5 54,-.5 0,-.5"/>
<text text-anchor="middle" x="27" y="-15.5" font-family="Arial" font-size="10.00" fill="#000000">Start</text>
</g>
<!-- input_data -->
<g id="node2" class="node">
<title>input_data</title>
<polygon fill="none" stroke="#000000" points="90,-.5 90,-36.5 179.336,-36.5 179.336,-.5 90,-.5"/>
<text text-anchor="middle" x="134.668" y="-15.5" font-family="Arial" font-size="10.00" fill="#000000">Dane wejściowe</text>
</g>
<!-- start&#45;&gt;input_data -->
<g id="edge1" class="edge">
<title>start-&gt;input_data</title>
<path fill="none" stroke="#000000" d="M54.1692,-18.5C62.0448,-18.5 70.9391,-18.5 79.8687,-18.5"/>
<polygon fill="#000000" stroke="#000000" points="79.9133,-22.0001 89.9133,-18.5 79.9132,-15.0001 79.9133,-22.0001"/>
</g>
<!-- fit -->
<g id="node3" class="node">
<title>fit</title>
<polygon fill="none" stroke="#000000" points="215.336,-.5 215.336,-36.5 269.336,-36.5 269.336,-.5 215.336,-.5"/>
<text text-anchor="middle" x="242.336" y="-15.5" font-family="Arial" font-size="10.00" fill="#000000">fit()</text>
</g>
<!-- input_data&#45;&gt;fit -->
<g id="edge2" class="edge">
<title>input_data-&gt;fit</title>
<path fill="none" stroke="#000000" d="M179.3936,-18.5C187.9246,-18.5 196.77,-18.5 205.0389,-18.5"/>
<polygon fill="#000000" stroke="#000000" points="205.1375,-22.0001 215.1375,-18.5 205.1374,-15.0001 205.1375,-22.0001"/>
</g>
<!-- predict -->
<g id="node4" class="node">
<title>predict</title>
<polygon fill="none" stroke="#000000" points="305.336,-.5 305.336,-36.5 359.336,-36.5 359.336,-.5 305.336,-.5"/>
<text text-anchor="middle" x="332.336" y="-15.5" font-family="Arial" font-size="10.00" fill="#000000">predict()</text>
</g>
<!-- fit&#45;&gt;predict -->
<g id="edge3" class="edge">
<title>fit-&gt;predict</title>
<path fill="none" stroke="#000000" d="M269.339,-18.5C277.3637,-18.5 286.3025,-18.5 294.8669,-18.5"/>
<polygon fill="#000000" stroke="#000000" points="295.0411,-22.0001 305.041,-18.5 295.041,-15.0001 295.0411,-22.0001"/>
</g>
<!-- calculate_distance -->
<g id="node5" class="node">
<title>calculate_distance</title>
<polygon fill="none" stroke="#000000" points="395.336,-.5 395.336,-36.5 491.34,-36.5 491.34,-.5 395.336,-.5"/>
<text text-anchor="middle" x="443.338" y="-15.5" font-family="Arial" font-size="10.00" fill="#000000">Oblicz odległości</text>
</g>
<!-- predict&#45;&gt;calculate_distance -->
<g id="edge4" class="edge">
<title>predict-&gt;calculate_distance</title>
<path fill="none" stroke="#000000" d="M359.4901,-18.5C367.3246,-18.5 376.189,-18.5 385.1472,-18.5"/>
<polygon fill="#000000" stroke="#000000" points="385.2512,-22.0001 395.2511,-18.5 385.2511,-15.0001 385.2512,-22.0001"/>
</g>
<!-- find_k_neighbors -->
<g id="node6" class="node">
<title>find_k_neighbors</title>
<polygon fill="none" stroke="#000000" points="527.34,-.5 527.34,-36.5 696.114,-36.5 696.114,-.5 527.34,-.5"/>
<text text-anchor="middle" x="611.727" y="-15.5" font-family="Arial" font-size="10.00" fill="#000000">Znajdź k najbliższych sąsiadów</text>
</g>
<!-- calculate_distance&#45;&gt;find_k_neighbors -->
<g id="edge5" class="edge">
<title>calculate_distance-&gt;find_k_neighbors</title>
<path fill="none" stroke="#000000" d="M491.5915,-18.5C499.7118,-18.5 508.3811,-18.5 517.2041,-18.5"/>
<polygon fill="#000000" stroke="#000000" points="517.2098,-22.0001 527.2097,-18.5 517.2097,-15.0001 517.2098,-22.0001"/>
</g>
<!-- majority_vote -->
<g id="node7" class="node">
<title>majority_vote</title>
<polygon fill="none" stroke="#000000" points="732.114,-.5 732.114,-36.5 839.767,-36.5 839.767,-.5 732.114,-.5"/>
<text text-anchor="middle" x="785.9405" y="-15.5" font-family="Arial" font-size="10.00" fill="#000000">Większość głosów</text>
</g>
<!-- find_k_neighbors&#45;&gt;majority_vote -->
<g id="edge6" class="edge">
<title>find_k_neighbors-&gt;majority_vote</title>
<path fill="none" stroke="#000000" d="M696.2821,-18.5C704.9108,-18.5 713.573,-18.5 721.9294,-18.5"/>
<polygon fill="#000000" stroke="#000000" points="721.9481,-22.0001 731.9481,-18.5 721.9481,-15.0001 721.9481,-22.0001"/>
</g>
<!-- output -->
<g id="node8" class="node">
<title>output</title>
<polygon fill="none" stroke="#000000" points="875.767,-.5 875.767,-36.5 929.767,-36.5 929.767,-.5 875.767,-.5"/>
<text text-anchor="middle" x="902.767" y="-15.5" font-family="Arial" font-size="10.00" fill="#000000">Wynik</text>
</g>
<!-- majority_vote&#45;&gt;output -->
<g id="edge7" class="edge">
<title>majority_vote-&gt;output</title>
<path fill="none" stroke="#000000" d="M839.9081,-18.5C848.6519,-18.5 857.5293,-18.5 865.7505,-18.5"/>
<polygon fill="#000000" stroke="#000000" points="865.7537,-22.0001 875.7537,-18.5 865.7537,-15.0001 865.7537,-22.0001"/>
</g>
<!-- end -->
<g id="node9" class="node">
<title>end</title>
<polygon fill="none" stroke="#000000" points="965.767,-.5 965.767,-36.5 1019.767,-36.5 1019.767,-.5 965.767,-.5"/>
<text text-anchor="middle" x="992.767" y="-15.5" font-family="Arial" font-size="10.00" fill="#000000">Koniec</text>
</g>
<!-- output&#45;&gt;end -->
<g id="edge8" class="edge">
<title>output-&gt;end</title>
<path fill="none" stroke="#000000" d="M929.77,-18.5C937.7947,-18.5 946.7335,-18.5 955.2979,-18.5"/>
<polygon fill="#000000" stroke="#000000" points="955.4721,-22.0001 965.472,-18.5 955.472,-15.0001 955.4721,-22.0001"/>
</g>
</g>
</svg>