<?xml version="1.0" encoding="UTF-8" standalone="no"?><!DOCTYPE svg PUBLIC "-//W3C//DTD SVG 1.1//EN" "http://www.w3.org/Graphics/SVG/1.1/DTD/svg11.dtd"><!-- Generated by graphviz version 2.40.1 (20161225.0304)
 --><!-- Title: KNN_Centroids Pages: 1 --><svg xmlns="http://www.w3.org/2000/svg" xmlns:xlink="http://www.w3.org/1999/xlink" width="919pt" height="45pt" viewBox="0.00 0.00 918.90 45.00">
<g id="graph0" class="graph" transform="scale(1 1) rotate(0) translate(4 41)">
<title>KNN_Centroids</title>
<polygon fill="#ffffff" stroke="transparent" points="-4,4 -4,-41 914.899,-41 914.899,4 -4,4"/>
<!-- start -->
<g id="node1" class="node">
<title>start</title>
<polygon fill="none" stroke="#000000" points="0,-.5 0,-36.5 54,-36.5 54,-.5 0,-.5"/>
<text text-anchor="middle" x="27" y="-15.5" font-family="Arial" font-size="10.00" fill="#000000">Start</text>
</g>
<!-- input_data -->
<g id="node2" class="node">
<title>input_data</title>
<polygon fill="none" stroke="#000000" points="90,-.5 90,-36.5 179.336,-36.5 179.336,-.5 90,-.5"/>
<text text-anchor="middle" x="134.668" y="-15.5" font-family="Arial" font-size="10.00" fill="#000000">Dane wejściowe</text>
</g>
<!-- start&#45;&gt;input_data -->
<g id="edge1" class="edge">
<title>start-&gt;input_data</title>
<path fill="none" stroke="#000000" d="M54.1692,-18.5C62.0448,-18.5 70.9391,-18.5 79.8687,-18.5"/>
<polygon fill="#000000" stroke="#000000" points="79.9133,-22.0001 89.9133,-18.5 79.9132,-15.0001 79.9133,-22.0001"/>
</g>
<!-- fit -->
<g id="node3" class="node">
<title>fit</title>
<polygon fill="none" stroke="#000000" points="215.336,-.5 215.336,-36.5 269.336,-36.5 269.336,-.5 215.336,-.5"/>
<text text-anchor="middle" x="242.336" y="-15.5" font-family="Arial" font-size="10.00" fill="#000000">fit()</text>
</g>
<!-- input_data&#45;&gt;fit -->
<g id="edge2" class="edge">
<title>input_data-&gt;fit</title>
<path fill="none" stroke="#000000" d="M179.3936,-18.5C187.9246,-18.5 196.77,-18.5 205.0389,-18.5"/>
<polygon fill="#000000" stroke="#000000" points="205.1375,-22.0001 215.1375,-18.5 205.1374,-15.0001 205.1375,-22.0001"/>
</g>
<!-- compute_centroids -->
<g id="node4" class="node">
<title>compute_centroids</title>
<polygon fill="none" stroke="#000000" points="305.336,-.5 305.336,-36.5 392.454,-36.5 392.454,-.5 305.336,-.5"/>
<text text-anchor="middle" x="348.895" y="-15.5" font-family="Arial" font-size="10.00" fill="#000000">Oblicz centroidy</text>
</g>
<!-- fit&#45;&gt;compute_centroids -->
<g id="edge3" class="edge">
<title>fit-&gt;compute_centroids</title>
<path fill="none" stroke="#000000" d="M269.501,-18.5C277.386,-18.5 286.2848,-18.5 295.1991,-18.5"/>
<polygon fill="#000000" stroke="#000000" points="295.2171,-22.0001 305.2171,-18.5 295.217,-15.0001 295.2171,-22.0001"/>
</g>
<!-- predict -->
<g id="node5" class="node">
<title>predict</title>
<polygon fill="none" stroke="#000000" points="428.454,-.5 428.454,-36.5 482.454,-36.5 482.454,-.5 428.454,-.5"/>
<text text-anchor="middle" x="455.454" y="-15.5" font-family="Arial" font-size="10.00" fill="#000000">predict()</text>
</g>
<!-- compute_centroids&#45;&gt;predict -->
<g id="edge4" class="edge">
<title>compute_centroids-&gt;predict</title>
<path fill="none" stroke="#000000" d="M392.5441,-18.5C401.0308,-18.5 409.8547,-18.5 418.1155,-18.5"/>
<polygon fill="#000000" stroke="#000000" points="418.2102,-22.0001 428.2102,-18.5 418.2101,-15.0001 418.2102,-22.0001"/>
</g>
<!-- calculate_distance -->
<g id="node6" class="node">
<title>calculate_distance</title>
<polygon fill="none" stroke="#000000" points="518.454,-.5 518.454,-36.5 614.458,-36.5 614.458,-.5 518.454,-.5"/>
<text text-anchor="middle" x="566.456" y="-15.5" font-family="Arial" font-size="10.00" fill="#000000">Oblicz odległości</text>
</g>
<!-- predict&#45;&gt;calculate_distance -->
<g id="edge5" class="edge">
<title>predict-&gt;calculate_distance</title>
<path fill="none" stroke="#000000" d="M482.6081,-18.5C490.4426,-18.5 499.307,-18.5 508.2652,-18.5"/>
<polygon fill="#000000" stroke="#000000" points="508.3692,-22.0001 518.3691,-18.5 508.3691,-15.0001 508.3692,-22.0001"/>
</g>
<!-- assign_class -->
<g id="node7" class="node">
<title>assign_class</title>
<polygon fill="none" stroke="#000000" points="650.458,-.5 650.458,-36.5 730.899,-36.5 730.899,-.5 650.458,-.5"/>
<text text-anchor="middle" x="690.6785" y="-15.5" font-family="Arial" font-size="10.00" fill="#000000">Przypisz klasę</text>
</g>
<!-- calculate_distance&#45;&gt;assign_class -->
<g id="edge6" class="edge">
<title>calculate_distance-&gt;assign_class</title>
<path fill="none" stroke="#000000" d="M614.4837,-18.5C622.9293,-18.5 631.7418,-18.5 640.2507,-18.5"/>
<polygon fill="#000000" stroke="#000000" points="640.4342,-22.0001 650.4342,-18.5 640.4341,-15.0001 640.4342,-22.0001"/>
</g>
<!-- output -->
<g id="node8" class="node">
<title>output</title>
<polygon fill="none" stroke="#000000" points="766.899,-.5 766.899,-36.5 820.899,-36.5 820.899,-.5 766.899,-.5"/>
<text text-anchor="middle" x="793.899" y="-15.5" font-family="Arial" font-size="10.00" fill="#000000">Wynik</text>
</g>
<!-- assign_class&#45;&gt;output -->
<g id="edge7" class="edge">
<title>assign_class-&gt;output</title>
<path fill="none" stroke="#000000" d="M731.1777,-18.5C739.5968,-18.5 748.43,-18.5 756.7225,-18.5"/>
<polygon fill="#000000" stroke="#000000" points="756.8655,-22.0001 766.8654,-18.5 756.8654,-15.0001 756.8655,-22.0001"/>
</g>
<!-- end -->
<g id="node9" class="node">
<title>end</title>
<polygon fill="none" stroke="#000000" points="856.899,-.5 856.899,-36.5 910.899,-36.5 910.899,-.5 856.899,-.5"/>
<text text-anchor="middle" x="883.899" y="-15.5" font-family="Arial" font-size="10.00" fill="#000000">Koniec</text>
</g>
<!-- output&#45;&gt;end -->
<g id="edge8" class="edge">
<title>output-&gt;end</title>
<path fill="none" stroke="#000000" d="M820.902,-18.5C828.9267,-18.5 837.8655,-18.5 846.4299,-18.5"/>
<polygon fill="#000000" stroke="#000000" points="846.6041,-22.0001 856.604,-18.5 846.604,-15.0001 846.6041,-22.0001"/>
</g>
</g>
</svg>