<?xml version="1.0" encoding="UTF-8" standalone="no"?><!DOCTYPE svg PUBLIC "-//W3C//DTD SVG 1.1//EN" "http://www.w3.org/Graphics/SVG/1.1/DTD/svg11.dtd"><!-- Generated by graphviz version 2.40.1 (20161225.0304)
 --><!-- Title: PCA Pages: 1 --><svg xmlns="http://www.w3.org/2000/svg" xmlns:xlink="http://www.w3.org/1999/xlink" width="1111pt" height="45pt" viewBox="0.00 0.00 1110.71 45.00">
<g id="graph0" class="graph" transform="scale(1 1) rotate(0) translate(4 41)">
<title>PCA</title>
<polygon fill="#ffffff" stroke="transparent" points="-4,4 -4,-41 1106.71,-41 1106.71,4 -4,4"/>
<!-- start -->
<g id="node1" class="node">
<title>start</title>
<polygon fill="none" stroke="#000000" points="0,-.5 0,-36.5 54,-36.5 54,-.5 0,-.5"/>
<text text-anchor="middle" x="27" y="-15.5" font-family="Arial" font-size="10.00" fill="#000000">Start</text>
</g>
<!-- input_data -->
<g id="node2" class="node">
<title>input_data</title>
<polygon fill="none" stroke="#000000" points="90,-.5 90,-36.5 179.336,-36.5 179.336,-.5 90,-.5"/>
<text text-anchor="middle" x="134.668" y="-15.5" font-family="Arial" font-size="10.00" fill="#000000">Dane wejściowe</text>
</g>
<!-- start&#45;&gt;input_data -->
<g id="edge1" class="edge">
<title>start-&gt;input_data</title>
<path fill="none" stroke="#000000" d="M54.1692,-18.5C62.0448,-18.5 70.9391,-18.5 79.8687,-18.5"/>
<polygon fill="#000000" stroke="#000000" points="79.9133,-22.0001 89.9133,-18.5 79.9132,-15.0001 79.9133,-22.0001"/>
</g>
<!-- calculate_cov -->
<g id="node3" class="node">
<title>calculate_cov</title>
<polygon fill="none" stroke="#000000" points="215.336,-.5 215.336,-36.5 349.106,-36.5 349.106,-.5 215.336,-.5"/>
<text text-anchor="middle" x="282.221" y="-15.5" font-family="Arial" font-size="10.00" fill="#000000">Oblicz macierz kowariancji</text>
</g>
<!-- input_data&#45;&gt;calculate_cov -->
<g id="edge2" class="edge">
<title>input_data-&gt;calculate_cov</title>
<path fill="none" stroke="#000000" d="M179.3392,-18.5C187.4476,-18.5 196.1146,-18.5 204.849,-18.5"/>
<polygon fill="#000000" stroke="#000000" points="205.1039,-22.0001 215.1039,-18.5 205.1039,-15.0001 205.1039,-22.0001"/>
</g>
<!-- eigen_decomposition -->
<g id="node4" class="node">
<title>eigen_decomposition</title>
<polygon fill="none" stroke="#000000" points="385.106,-.5 385.106,-36.5 555.002,-36.5 555.002,-.5 385.106,-.5"/>
<text text-anchor="middle" x="470.054" y="-15.5" font-family="Arial" font-size="10.00" fill="#000000">Dekompozycja wartości własnych</text>
</g>
<!-- calculate_cov&#45;&gt;eigen_decomposition -->
<g id="edge3" class="edge">
<title>calculate_cov-&gt;eigen_decomposition</title>
<path fill="none" stroke="#000000" d="M349.2375,-18.5C357.5673,-18.5 366.2055,-18.5 374.8581,-18.5"/>
<polygon fill="#000000" stroke="#000000" points="375.0046,-22.0001 385.0046,-18.5 375.0045,-15.0001 375.0046,-22.0001"/>
</g>
<!-- select_components -->
<g id="node5" class="node">
<title>select_components</title>
<polygon fill="none" stroke="#000000" points="591.002,-.5 591.002,-36.5 733.12,-36.5 733.12,-.5 591.002,-.5"/>
<text text-anchor="middle" x="662.061" y="-15.5" font-family="Arial" font-size="10.00" fill="#000000">Wybierz składowe główne</text>
</g>
<!-- eigen_decomposition&#45;&gt;select_components -->
<g id="edge4" class="edge">
<title>eigen_decomposition-&gt;select_components</title>
<path fill="none" stroke="#000000" d="M555.1096,-18.5C563.5959,-18.5 572.1978,-18.5 580.6455,-18.5"/>
<polygon fill="#000000" stroke="#000000" points="580.8552,-22.0001 590.8551,-18.5 580.8551,-15.0001 580.8552,-22.0001"/>
</g>
<!-- transform_data -->
<g id="node6" class="node">
<title>transform_data</title>
<polygon fill="none" stroke="#000000" points="769.12,-.5 769.12,-36.5 863.465,-36.5 863.465,-.5 769.12,-.5"/>
<text text-anchor="middle" x="816.2925" y="-15.5" font-family="Arial" font-size="10.00" fill="#000000">Transformuj dane</text>
</g>
<!-- select_components&#45;&gt;transform_data -->
<g id="edge5" class="edge">
<title>select_components-&gt;transform_data</title>
<path fill="none" stroke="#000000" d="M733.3077,-18.5C741.7432,-18.5 750.2729,-18.5 758.4899,-18.5"/>
<polygon fill="#000000" stroke="#000000" points="758.7003,-22.0001 768.7003,-18.5 758.7003,-15.0001 758.7003,-22.0001"/>
</g>
<!-- output -->
<g id="node7" class="node">
<title>output</title>
<polygon fill="none" stroke="#000000" points="899.465,-.5 899.465,-36.5 1012.71,-36.5 1012.71,-.5 899.465,-.5"/>
<text text-anchor="middle" x="956.0875" y="-15.5" font-family="Arial" font-size="10.00" fill="#000000">Dane przekształcone</text>
</g>
<!-- transform_data&#45;&gt;output -->
<g id="edge6" class="edge">
<title>transform_data-&gt;output</title>
<path fill="none" stroke="#000000" d="M863.6207,-18.5C871.819,-18.5 880.4813,-18.5 889.085,-18.5"/>
<polygon fill="#000000" stroke="#000000" points="889.1268,-22.0001 899.1267,-18.5 889.1267,-15.0001 889.1268,-22.0001"/>
</g>
<!-- end -->
<g id="node8" class="node">
<title>end</title>
<polygon fill="none" stroke="#000000" points="1048.71,-.5 1048.71,-36.5 1102.71,-36.5 1102.71,-.5 1048.71,-.5"/>
<text text-anchor="middle" x="1075.71" y="-15.5" font-family="Arial" font-size="10.00" fill="#000000">Koniec</text>
</g>
<!-- output&#45;&gt;end -->
<g id="edge7" class="edge">
<title>output-&gt;end</title>
<path fill="none" stroke="#000000" d="M1012.7459,-18.5C1021.3956,-18.5 1030.1334,-18.5 1038.2332,-18.5"/>
<polygon fill="#000000" stroke="#000000" points="1038.4524,-22.0001 1048.4524,-18.5 1038.4524,-15.0001 1038.4524,-22.0001"/>
</g>
</g>
</svg>