<?xml version="1.0" encoding="UTF-8" standalone="no"?><!DOCTYPE svg PUBLIC "-//W3C//DTD SVG 1.1//EN" "http://www.w3.org/Graphics/SVG/1.1/DTD/svg11.dtd"><!-- Generated by graphviz version 2.40.1 (20161225.0304)
 --><!-- Title: G Pages: 1 --><svg xmlns="http://www.w3.org/2000/svg" xmlns:xlink="http://www.w3.org/1999/xlink" width="460pt" height="295pt" viewBox="0.00 0.00 459.71 294.60">
<g id="graph0" class="graph" transform="scale(1 1) rotate(0) translate(4 290.6)">
<title>G</title>
<polygon fill="#ffffff" stroke="transparent" points="-4,4 -4,-290.6 455.7064,-290.6 455.7064,4 -4,4"/>
<!-- a -->
<g id="node1" class="node">
<title>a</title>
<ellipse fill="none" stroke="#000000" cx="255.2274" cy="-268.6" rx="29.049" ry="18"/>
<text text-anchor="middle" x="255.2274" y="-264.4" font-family="Times,serif" font-size="14.00" fill="#000000">Start</text>
</g>
<!-- d -->
<g id="node2" class="node">
<title>d</title>
<ellipse fill="none" stroke="#000000" cx="255.2274" cy="-195.6" rx="81.059" ry="18"/>
<text text-anchor="middle" x="255.2274" y="-191.4" font-family="Times,serif" font-size="14.00" fill="#000000">Iterate over words</text>
</g>
<!-- a&#45;&gt;d -->
<g id="edge1" class="edge">
<title>a-&gt;d</title>
<path fill="none" stroke="#000000" d="M255.2274,-250.5551C255.2274,-242.4828 255.2274,-232.7764 255.2274,-223.7817"/>
<polygon fill="#000000" stroke="#000000" points="258.7275,-223.6903 255.2274,-213.6904 251.7275,-223.6904 258.7275,-223.6903"/>
</g>
<!-- e -->
<g id="node3" class="node">
<title>e</title>
<ellipse fill="none" stroke="#000000" cx="128.2274" cy="-106.8" rx="128.4552" ry="18"/>
<text text-anchor="middle" x="128.2274" y="-102.6" font-family="Times,serif" font-size="14.00" fill="#000000">Check if word is a palindrome</text>
</g>
<!-- d&#45;&gt;e -->
<g id="edge2" class="edge">
<title>d-&gt;e</title>
<path fill="none" stroke="#000000" d="M191.0444,-184.5188C164.2478,-178.4798 137.4576,-170.0826 129.3732,-159.6 124.0787,-152.7349 122.539,-143.738 122.7026,-135.1206"/>
<polygon fill="#000000" stroke="#000000" points="126.206,-135.238 123.6092,-124.9664 119.2337,-134.6155 126.206,-135.238"/>
<text text-anchor="middle" x="169.6545" y="-147" font-family="Times,serif" font-size="14.00" fill="#000000">For each word</text>
</g>
<!-- g -->
<g id="node5" class="node">
<title>g</title>
<ellipse fill="none" stroke="#000000" cx="301.2274" cy="-106.8" rx="27" ry="18"/>
<text text-anchor="middle" x="301.2274" y="-102.6" font-family="Times,serif" font-size="14.00" fill="#000000">End</text>
</g>
<!-- d&#45;&gt;g -->
<g id="edge6" class="edge">
<title>d-&gt;g</title>
<path fill="none" stroke="#000000" d="M263.4311,-177.33C268.1499,-167.0762 274.3094,-154.1088 280.2694,-142.8 282.0248,-139.4691 283.9331,-136.0041 285.8594,-132.5973"/>
<polygon fill="#000000" stroke="#000000" points="288.9419,-134.2581 290.9079,-123.8473 282.8787,-130.7598 288.9419,-134.2581"/>
<text text-anchor="middle" x="332.7064" y="-147" font-family="Times,serif" font-size="14.00" fill="#000000">All words checked</text>
</g>
<!-- e&#45;&gt;d -->
<g id="edge4" class="edge">
<title>e-&gt;d</title>
<path fill="none" stroke="#000000" d="M176.198,-123.5428C187.9064,-128.7658 199.9964,-135.1931 210.2274,-142.8 220.2446,-150.248 229.5265,-160.3193 237.0266,-169.6692"/>
<polygon fill="#000000" stroke="#000000" points="234.2645,-171.8189 243.1327,-177.6159 239.8152,-167.5539 234.2645,-171.8189"/>
<text text-anchor="middle" x="240.2786" y="-147" font-family="Times,serif" font-size="14.00" fill="#000000">Else</text>
</g>
<!-- f -->
<g id="node4" class="node">
<title>f</title>
<ellipse fill="none" stroke="#000000" cx="264.2274" cy="-18" rx="98.4161" ry="18"/>
<text text-anchor="middle" x="264.2274" y="-13.8" font-family="Times,serif" font-size="14.00" fill="#000000">Add palindrome to list</text>
</g>
<!-- e&#45;&gt;f -->
<g id="edge3" class="edge">
<title>e-&gt;f</title>
<path fill="none" stroke="#000000" d="M155.4222,-89.0434C176.5925,-75.2204 206.1364,-55.93 229.0969,-40.9381"/>
<polygon fill="#000000" stroke="#000000" points="231.0836,-43.821 237.5432,-35.4232 227.2565,-37.9598 231.0836,-43.821"/>
<text text-anchor="middle" x="246.5188" y="-58.2" font-family="Times,serif" font-size="14.00" fill="#000000">If palindrome</text>
</g>
<!-- f&#45;&gt;d -->
<g id="edge5" class="edge">
<title>f-&gt;d</title>
<path fill="none" stroke="#000000" d="M298.0336,-35.1287C345.0873,-61.2363 420.761,-112.8891 385.2274,-159.6 377.9372,-169.1833 355.5279,-176.8764 331.3221,-182.6514"/>
<polygon fill="#000000" stroke="#000000" points="330.2313,-179.3096 321.2496,-184.9291 331.7753,-186.1372 330.2313,-179.3096"/>
<text text-anchor="middle" x="421.9669" y="-102.6" font-family="Times,serif" font-size="14.00" fill="#000000">Next word</text>
</g>
</g>
</svg>