<?xml version="1.0" encoding="UTF-8" standalone="no"?><!DOCTYPE svg PUBLIC "-//W3C//DTD SVG 1.1//EN" "http://www.w3.org/Graphics/SVG/1.1/DTD/svg11.dtd"><!-- Generated by graphviz version 2.40.1 (20161225.0304)
 --><!-- Title: G Pages: 1 --><svg xmlns="http://www.w3.org/2000/svg" xmlns:xlink="http://www.w3.org/1999/xlink" width="964pt" height="103pt" viewBox="0.00 0.00 964.50 103.09">
<g id="graph0" class="graph" transform="scale(1 1) rotate(0) translate(4 99.0937)">
<title>G</title>
<polygon fill="#ffffff" stroke="transparent" points="-4,4 -4,-99.0937 960.497,-99.0937 960.497,4 -4,4"/>
<!-- start -->
<g id="node1" class="node">
<title>start</title>
<polygon fill="none" stroke="#000000" points="11.2845,-3.5937 11.2845,-39.5937 65.2845,-39.5937 65.2845,-3.5937 11.2845,-3.5937"/>
<text text-anchor="middle" x="38.2845" y="-18.5937" font-family="Arial" font-size="10.00" fill="#000000">Start</text>
</g>
<!-- word_list -->
<g id="node2" class="node">
<title>word_list</title>
<polygon fill="none" stroke="#000000" points="113.569,-3.5937 113.569,-39.5937 169.011,-39.5937 169.011,-3.5937 113.569,-3.5937"/>
<text text-anchor="middle" x="141.29" y="-18.5937" font-family="Arial" font-size="10.00" fill="#000000">word_list</text>
</g>
<!-- start&#45;&gt;word_list -->
<g id="edge1" class="edge">
<title>start-&gt;word_list</title>
<path fill="none" stroke="#000000" d="M65.348,-21.5937C76.8968,-21.5937 90.58,-21.5937 103.1284,-21.5937"/>
<polygon fill="#000000" stroke="#000000" points="103.3304,-25.0938 113.3303,-21.5937 103.3303,-18.0938 103.3304,-25.0938"/>
</g>
<!-- find_anagrams -->
<g id="node3" class="node">
<title>find_anagrams</title>
<polygon fill="none" stroke="#000000" points="206.011,-3.5937 206.011,-39.5937 294.797,-39.5937 294.797,-3.5937 206.011,-3.5937"/>
<text text-anchor="middle" x="250.404" y="-18.5937" font-family="Arial" font-size="10.00" fill="#000000">find_anagrams()</text>
</g>
<!-- word_list&#45;&gt;find_anagrams -->
<g id="edge2" class="edge">
<title>word_list-&gt;find_anagrams</title>
<path fill="none" stroke="#000000" d="M169.1064,-21.5937C177.1804,-21.5937 186.2926,-21.5937 195.4206,-21.5937"/>
<polygon fill="#000000" stroke="#000000" points="195.6788,-25.0938 205.6788,-21.5937 195.6788,-18.0938 195.6788,-25.0938"/>
</g>
<!-- sorted_word -->
<g id="node4" class="node">
<title>sorted_word</title>
<polygon fill="none" stroke="#000000" points="331.797,-3.5937 331.797,-39.5937 402.807,-39.5937 402.807,-3.5937 331.797,-3.5937"/>
<text text-anchor="middle" x="367.302" y="-18.5937" font-family="Arial" font-size="10.00" fill="#000000">sorted_word</text>
</g>
<!-- find_anagrams&#45;&gt;sorted_word -->
<g id="edge3" class="edge">
<title>find_anagrams-&gt;sorted_word</title>
<path fill="none" stroke="#000000" d="M294.9316,-21.5937C303.6501,-21.5937 312.8075,-21.5937 321.5647,-21.5937"/>
<polygon fill="#000000" stroke="#000000" points="321.611,-25.0938 331.611,-21.5937 321.6109,-18.0938 321.611,-25.0938"/>
</g>
<!-- check_sorted_word -->
<g id="node6" class="node">
<title>check_sorted_word</title>
<polygon fill="none" stroke="#000000" points="459.0188,-3.5937 459.0188,-39.5937 685.5998,-39.5937 685.5998,-3.5937 459.0188,-3.5937"/>
<text text-anchor="middle" x="572.3093" y="-18.5937" font-family="Arial" font-size="10.00" fill="#000000">Sprawdź, czy sorted_word jest w anagram_dict</text>
</g>
<!-- sorted_word&#45;&gt;check_sorted_word -->
<g id="edge4" class="edge">
<title>sorted_word-&gt;check_sorted_word</title>
<path fill="none" stroke="#000000" d="M402.9847,-23.1131C408.9353,-23.3132 415.0448,-23.486 420.807,-23.5937 429.8847,-23.7633 439.2686,-23.8508 448.7111,-23.8753"/>
<polygon fill="#000000" stroke="#000000" points="448.9676,-27.3752 458.9685,-23.878 448.9695,-20.3752 448.9676,-27.3752"/>
</g>
<!-- anagram_dict -->
<g id="node5" class="node">
<title>anagram_dict</title>
<polygon fill="none" stroke="#000000" points="0,-58.5937 0,-94.5937 76.569,-94.5937 76.569,-58.5937 0,-58.5937"/>
<text text-anchor="middle" x="38.2845" y="-73.5937" font-family="Arial" font-size="10.00" fill="#000000">anagram_dict</text>
</g>
<!-- check_sorted_word&#45;&gt;sorted_word -->
<g id="edge6" class="edge">
<title>check_sorted_word-&gt;sorted_word</title>
<path fill="none" stroke="#000000" stroke-dasharray="5,2" d="M496.9774,-3.5595C472.6031,-.0418 445.4969,1.4177 420.807,-2.7937 418.1243,-3.2513 415.3972,-3.8292 412.6665,-4.4962"/>
<polygon fill="#000000" stroke="#000000" points="411.5237,-1.1814 402.8357,-7.2451 413.4088,-7.9228 411.5237,-1.1814"/>
<text text-anchor="middle" x="430.9129" y="-7.7937" font-family="Times,serif" font-size="14.00" fill="#000000">Nie</text>
</g>
<!-- update_anagram_dict -->
<g id="node7" class="node">
<title>update_anagram_dict</title>
<polygon fill="none" stroke="#000000" points="743.367,-3.5937 743.367,-39.5937 865.497,-39.5937 865.497,-3.5937 743.367,-3.5937"/>
<text text-anchor="middle" x="804.432" y="-18.5937" font-family="Arial" font-size="10.00" fill="#000000">Aktualizuj anagram_dict</text>
</g>
<!-- check_sorted_word&#45;&gt;update_anagram_dict -->
<g id="edge5" class="edge">
<title>check_sorted_word-&gt;update_anagram_dict</title>
<path fill="none" stroke="#000000" d="M685.6507,-21.5937C701.8272,-21.5937 718.0742,-21.5937 733.1337,-21.5937"/>
<polygon fill="#000000" stroke="#000000" points="733.3544,-25.0938 743.3544,-21.5937 733.3544,-18.0938 733.3544,-25.0938"/>
<text text-anchor="middle" x="714.4834" y="-25.7937" font-family="Times,serif" font-size="14.00" fill="#000000">Tak</text>
</g>
<!-- end -->
<g id="node8" class="node">
<title>end</title>
<polygon fill="none" stroke="#000000" points="902.497,-3.5937 902.497,-39.5937 956.497,-39.5937 956.497,-3.5937 902.497,-3.5937"/>
<text text-anchor="middle" x="929.497" y="-18.5937" font-family="Arial" font-size="10.00" fill="#000000">Koniec</text>
</g>
<!-- update_anagram_dict&#45;&gt;end -->
<g id="edge7" class="edge">
<title>update_anagram_dict-&gt;end</title>
<path fill="none" stroke="#000000" d="M865.499,-21.5937C874.5674,-21.5937 883.6769,-21.5937 892.0641,-21.5937"/>
<polygon fill="#000000" stroke="#000000" points="892.2441,-25.0938 902.2441,-21.5937 892.2441,-18.0938 892.2441,-25.0938"/>
</g>
</g>
</svg>