<?xml version="1.0" encoding="UTF-8" standalone="no"?><!DOCTYPE svg PUBLIC "-//W3C//DTD SVG 1.1//EN" "http://www.w3.org/Graphics/SVG/1.1/DTD/svg11.dtd"><!-- Generated by graphviz version 2.40.1 (20161225.0304)
 --><!-- Title: G Pages: 1 --><svg xmlns="http://www.w3.org/2000/svg" xmlns:xlink="http://www.w3.org/1999/xlink" width="1033pt" height="100pt" viewBox="0.00 0.00 1033.27 100.00">
<g id="graph0" class="graph" transform="scale(1 1) rotate(0) translate(4 96)">
<title>G</title>
<polygon fill="#ffffff" stroke="transparent" points="-4,4 -4,-96 1029.2682,-96 1029.2682,4 -4,4"/>
<!-- start -->
<g id="node1" class="node">
<title>start</title>
<polygon fill="none" stroke="#000000" points="11.2845,-.5 11.2845,-36.5 65.2845,-36.5 65.2845,-.5 11.2845,-.5"/>
<text text-anchor="middle" x="38.2845" y="-15.5" font-family="Arial" font-size="10.00" fill="#000000">Start</text>
</g>
<!-- word_list -->
<g id="node2" class="node">
<title>word_list</title>
<polygon fill="none" stroke="#000000" points="113.569,-.5 113.569,-36.5 169.011,-36.5 169.011,-.5 113.569,-.5"/>
<text text-anchor="middle" x="141.29" y="-15.5" font-family="Arial" font-size="10.00" fill="#000000">word_list</text>
</g>
<!-- start&#45;&gt;word_list -->
<g id="edge1" class="edge">
<title>start-&gt;word_list</title>
<path fill="none" stroke="#000000" d="M65.348,-18.5C76.8968,-18.5 90.58,-18.5 103.1284,-18.5"/>
<polygon fill="#000000" stroke="#000000" points="103.3304,-22.0001 113.3303,-18.5 103.3303,-15.0001 103.3304,-22.0001"/>
</g>
<!-- find_anagrams -->
<g id="node3" class="node">
<title>find_anagrams</title>
<polygon fill="none" stroke="#000000" points="206.011,-.5 206.011,-36.5 294.797,-36.5 294.797,-.5 206.011,-.5"/>
<text text-anchor="middle" x="250.404" y="-15.5" font-family="Arial" font-size="10.00" fill="#000000">find_anagrams()</text>
</g>
<!-- word_list&#45;&gt;find_anagrams -->
<g id="edge2" class="edge">
<title>word_list-&gt;find_anagrams</title>
<path fill="none" stroke="#000000" d="M169.1064,-18.5C177.1804,-18.5 186.2926,-18.5 195.4206,-18.5"/>
<polygon fill="#000000" stroke="#000000" points="195.6788,-22.0001 205.6788,-18.5 195.6788,-15.0001 195.6788,-22.0001"/>
</g>
<!-- count_letters -->
<g id="node4" class="node">
<title>count_letters</title>
<polygon fill="none" stroke="#000000" points="331.797,-.5 331.797,-36.5 411.694,-36.5 411.694,-.5 331.797,-.5"/>
<text text-anchor="middle" x="371.7455" y="-15.5" font-family="Arial" font-size="10.00" fill="#000000">count_letters()</text>
</g>
<!-- find_anagrams&#45;&gt;count_letters -->
<g id="edge3" class="edge">
<title>find_anagrams-&gt;count_letters</title>
<path fill="none" stroke="#000000" d="M294.8981,-18.5C303.5516,-18.5 312.6787,-18.5 321.5024,-18.5"/>
<polygon fill="#000000" stroke="#000000" points="321.6749,-22.0001 331.6748,-18.5 321.6748,-15.0001 321.6749,-22.0001"/>
</g>
<!-- are_anagrams -->
<g id="node5" class="node">
<title>are_anagrams</title>
<polygon fill="none" stroke="#000000" points="448.694,-41.5 448.694,-77.5 535.811,-77.5 535.811,-41.5 448.694,-41.5"/>
<text text-anchor="middle" x="492.2525" y="-56.5" font-family="Arial" font-size="10.00" fill="#000000">are_anagrams()</text>
</g>
<!-- count_letters&#45;&gt;are_anagrams -->
<g id="edge4" class="edge">
<title>count_letters-&gt;are_anagrams</title>
<path fill="none" stroke="#000000" d="M411.8726,-32.1524C420.5209,-35.0948 429.7943,-38.2499 438.8579,-41.3336"/>
<polygon fill="#000000" stroke="#000000" points="437.9766,-44.7307 448.571,-44.6383 440.2313,-38.1038 437.9766,-44.7307"/>
</g>
<!-- check_anagrams -->
<g id="node7" class="node">
<title>check_anagrams</title>
<polygon fill="none" stroke="#000000" points="572.811,-.5 572.811,-36.5 754.371,-36.5 754.371,-.5 572.811,-.5"/>
<text text-anchor="middle" x="663.591" y="-15.5" font-family="Arial" font-size="10.00" fill="#000000">Sprawdź, czy słowa są anagramami</text>
</g>
<!-- are_anagrams&#45;&gt;check_anagrams -->
<g id="edge5" class="edge">
<title>are_anagrams-&gt;check_anagrams</title>
<path fill="none" stroke="#000000" d="M535.9318,-49.0479C548.9014,-45.9443 563.577,-42.4326 578.2401,-38.9238"/>
<polygon fill="#000000" stroke="#000000" points="579.4575,-42.2314 588.3683,-36.5002 577.8284,-35.4236 579.4575,-42.2314"/>
</g>
<!-- anagram_dict -->
<g id="node6" class="node">
<title>anagram_dict</title>
<polygon fill="none" stroke="#000000" points="0,-55.5 0,-91.5 76.569,-91.5 76.569,-55.5 0,-55.5"/>
<text text-anchor="middle" x="38.2845" y="-70.5" font-family="Arial" font-size="10.00" fill="#000000">anagram_dict</text>
</g>
<!-- check_anagrams&#45;&gt;count_letters -->
<g id="edge7" class="edge">
<title>check_anagrams-&gt;count_letters</title>
<path fill="none" stroke="#000000" stroke-dasharray="5,2" d="M572.6172,-16.059C534.3515,-15.3583 489.357,-14.9604 448.694,-15.7 440.1441,-15.8555 431.0625,-16.1081 422.2487,-16.3996"/>
<polygon fill="#000000" stroke="#000000" points="421.9443,-12.908 412.0731,-16.7562 422.1895,-19.9037 421.9443,-12.908"/>
<text text-anchor="middle" x="492.2525" y="-19.7" font-family="Times,serif" font-size="14.00" fill="#000000">Nie</text>
</g>
<!-- update_anagram_dict -->
<g id="node8" class="node">
<title>update_anagram_dict</title>
<polygon fill="none" stroke="#000000" points="812.1382,-.5 812.1382,-36.5 934.2682,-36.5 934.2682,-.5 812.1382,-.5"/>
<text text-anchor="middle" x="873.2032" y="-15.5" font-family="Arial" font-size="10.00" fill="#000000">Aktualizuj anagram_dict</text>
</g>
<!-- check_anagrams&#45;&gt;update_anagram_dict -->
<g id="edge6" class="edge">
<title>check_anagrams-&gt;update_anagram_dict</title>
<path fill="none" stroke="#000000" d="M754.6155,-18.5C770.3251,-18.5 786.4551,-18.5 801.5604,-18.5"/>
<polygon fill="#000000" stroke="#000000" points="801.8365,-22.0001 811.8365,-18.5 801.8364,-15.0001 801.8365,-22.0001"/>
<text text-anchor="middle" x="783.2546" y="-22.7" font-family="Times,serif" font-size="14.00" fill="#000000">Tak</text>
</g>
<!-- end -->
<g id="node9" class="node">
<title>end</title>
<polygon fill="none" stroke="#000000" points="971.2682,-.5 971.2682,-36.5 1025.2682,-36.5 1025.2682,-.5 971.2682,-.5"/>
<text text-anchor="middle" x="998.2682" y="-15.5" font-family="Arial" font-size="10.00" fill="#000000">Koniec</text>
</g>
<!-- update_anagram_dict&#45;&gt;end -->
<g id="edge8" class="edge">
<title>update_anagram_dict-&gt;end</title>
<path fill="none" stroke="#000000" d="M934.2702,-18.5C943.3386,-18.5 952.4481,-18.5 960.8353,-18.5"/>
<polygon fill="#000000" stroke="#000000" points="961.0153,-22.0001 971.0153,-18.5 961.0153,-15.0001 961.0153,-22.0001"/>
</g>
</g>
</svg>