<?xml version="1.0" encoding="UTF-8" standalone="no"?><!DOCTYPE svg PUBLIC "-//W3C//DTD SVG 1.1//EN" "http://www.w3.org/Graphics/SVG/1.1/DTD/svg11.dtd"><!-- Generated by graphviz version 2.40.1 (20161225.0304)
 --><!-- Title: G Pages: 1 --><svg xmlns="http://www.w3.org/2000/svg" xmlns:xlink="http://www.w3.org/1999/xlink" width="259pt" height="733pt" viewBox="0.00 0.00 259.19 732.60">
<g id="graph0" class="graph" transform="scale(1 1) rotate(0) translate(4 728.6)">
<title>G</title>
<polygon fill="#ffffff" stroke="transparent" points="-4,4 -4,-728.6 255.1917,-728.6 255.1917,4 -4,4"/>
<!-- Start -->
<g id="node1" class="node">
<title>Start</title>
<ellipse fill="#d3d3d3" stroke="#d3d3d3" cx="126.5958" cy="-706.6" rx="29.049" ry="18"/>
<text text-anchor="middle" x="126.5958" y="-702.4" font-family="Times,serif" font-size="14.00" fill="#000000">Start</text>
</g>
<!-- InitializePopulation -->
<g id="node2" class="node">
<title>InitializePopulation</title>
<polygon fill="#d3d3d3" stroke="#d3d3d3" points="190.023,-651.6 63.1687,-651.6 63.1687,-615.6 190.023,-615.6 190.023,-651.6"/>
<text text-anchor="middle" x="126.5958" y="-629.4" font-family="Times,serif" font-size="14.00" fill="#000000">InitializePopulation</text>
</g>
<!-- Start&#45;&gt;InitializePopulation -->
<g id="edge1" class="edge">
<title>Start-&gt;InitializePopulation</title>
<path fill="none" stroke="#000000" d="M126.5958,-688.5551C126.5958,-680.4828 126.5958,-670.7764 126.5958,-661.7817"/>
<polygon fill="#000000" stroke="#000000" points="126.5958,-651.6904 131.0959,-661.6903 126.5959,-656.6904 126.5959,-661.6904 126.5959,-661.6904 126.5959,-661.6904 126.5959,-656.6904 122.0959,-661.6904 126.5958,-651.6904 126.5958,-651.6904"/>
</g>
<!-- EvaluatePopulation -->
<g id="node3" class="node">
<title>EvaluatePopulation</title>
<polygon fill="#d3d3d3" stroke="#d3d3d3" points="189.2429,-578.6 63.9488,-578.6 63.9488,-542.6 189.2429,-542.6 189.2429,-578.6"/>
<text text-anchor="middle" x="126.5958" y="-556.4" font-family="Times,serif" font-size="14.00" fill="#000000">EvaluatePopulation</text>
</g>
<!-- InitializePopulation&#45;&gt;EvaluatePopulation -->
<g id="edge2" class="edge">
<title>InitializePopulation-&gt;EvaluatePopulation</title>
<path fill="none" stroke="#000000" d="M126.5958,-615.5551C126.5958,-607.4828 126.5958,-597.7764 126.5958,-588.7817"/>
<polygon fill="#000000" stroke="#000000" points="126.5958,-578.6904 131.0959,-588.6903 126.5959,-583.6904 126.5959,-588.6904 126.5959,-588.6904 126.5959,-588.6904 126.5959,-583.6904 122.0959,-588.6904 126.5958,-578.6904 126.5958,-578.6904"/>
</g>
<!-- SelectParents -->
<g id="node4" class="node">
<title>SelectParents</title>
<polygon fill="#d3d3d3" stroke="#d3d3d3" points="172.512,-505.6 80.6797,-505.6 80.6797,-469.6 172.512,-469.6 172.512,-505.6"/>
<text text-anchor="middle" x="126.5958" y="-483.4" font-family="Times,serif" font-size="14.00" fill="#000000">SelectParents</text>
</g>
<!-- EvaluatePopulation&#45;&gt;SelectParents -->
<g id="edge3" class="edge">
<title>EvaluatePopulation-&gt;SelectParents</title>
<path fill="none" stroke="#000000" d="M126.5958,-542.5551C126.5958,-534.4828 126.5958,-524.7764 126.5958,-515.7817"/>
<polygon fill="#000000" stroke="#000000" points="126.5958,-505.6904 131.0959,-515.6903 126.5959,-510.6904 126.5959,-515.6904 126.5959,-515.6904 126.5959,-515.6904 126.5959,-510.6904 122.0959,-515.6904 126.5958,-505.6904 126.5958,-505.6904"/>
</g>
<!-- PerformCrossover -->
<g id="node5" class="node">
<title>PerformCrossover</title>
<polygon fill="#d3d3d3" stroke="#d3d3d3" points="142.7276,-432.6 24.4641,-432.6 24.4641,-396.6 142.7276,-396.6 142.7276,-432.6"/>
<text text-anchor="middle" x="83.5958" y="-410.4" font-family="Times,serif" font-size="14.00" fill="#000000">PerformCrossover</text>
</g>
<!-- SelectParents&#45;&gt;PerformCrossover -->
<g id="edge4" class="edge">
<title>SelectParents-&gt;PerformCrossover</title>
<path fill="none" stroke="#000000" d="M115.9666,-469.5551C110.9533,-461.0441 104.87,-450.7165 99.3361,-441.3219"/>
<polygon fill="#000000" stroke="#000000" points="94.2518,-432.6904 103.2046,-439.0227 96.7895,-436.9985 99.3272,-441.3067 99.3272,-441.3067 99.3272,-441.3067 96.7895,-436.9985 95.4499,-443.5906 94.2518,-432.6904 94.2518,-432.6904"/>
</g>
<!-- PerformMutation -->
<g id="node6" class="node">
<title>PerformMutation</title>
<polygon fill="#d3d3d3" stroke="#d3d3d3" points="140.2966,-359.6 26.8951,-359.6 26.8951,-323.6 140.2966,-323.6 140.2966,-359.6"/>
<text text-anchor="middle" x="83.5958" y="-337.4" font-family="Times,serif" font-size="14.00" fill="#000000">PerformMutation</text>
</g>
<!-- PerformCrossover&#45;&gt;PerformMutation -->
<g id="edge5" class="edge">
<title>PerformCrossover-&gt;PerformMutation</title>
<path fill="none" stroke="#000000" d="M83.5958,-396.5551C83.5958,-388.4828 83.5958,-378.7764 83.5958,-369.7817"/>
<polygon fill="#000000" stroke="#000000" points="83.5958,-359.6904 88.0959,-369.6903 83.5959,-364.6904 83.5959,-369.6904 83.5959,-369.6904 83.5959,-369.6904 83.5959,-364.6904 79.0959,-369.6904 83.5958,-359.6904 83.5958,-359.6904"/>
</g>
<!-- EvaluateOffspring -->
<g id="node7" class="node">
<title>EvaluateOffspring</title>
<polygon fill="#d3d3d3" stroke="#d3d3d3" points="142.4977,-270.8 22.694,-270.8 22.694,-234.8 142.4977,-234.8 142.4977,-270.8"/>
<text text-anchor="middle" x="82.5958" y="-248.6" font-family="Times,serif" font-size="14.00" fill="#000000">EvaluateOffspring</text>
</g>
<!-- PerformMutation&#45;&gt;EvaluateOffspring -->
<g id="edge6" class="edge">
<title>PerformMutation-&gt;EvaluateOffspring</title>
<path fill="none" stroke="#000000" d="M83.3886,-323.2006C83.2523,-311.0949 83.0712,-295.0076 82.9164,-281.2674"/>
<polygon fill="#000000" stroke="#000000" points="82.7994,-270.872 87.4118,-280.8207 82.8557,-275.8717 82.9121,-280.8714 82.9121,-280.8714 82.9121,-280.8714 82.8557,-275.8717 78.4123,-280.9221 82.7994,-270.872 82.7994,-270.872"/>
</g>
<!-- ReplacePopulation -->
<g id="node8" class="node">
<title>ReplacePopulation</title>
<polygon fill="#d3d3d3" stroke="#d3d3d3" points="142.3507,-197.8 20.841,-197.8 20.841,-161.8 142.3507,-161.8 142.3507,-197.8"/>
<text text-anchor="middle" x="81.5958" y="-175.6" font-family="Times,serif" font-size="14.00" fill="#000000">ReplacePopulation</text>
</g>
<!-- EvaluateOffspring&#45;&gt;ReplacePopulation -->
<g id="edge7" class="edge">
<title>EvaluateOffspring-&gt;ReplacePopulation</title>
<path fill="none" stroke="#000000" d="M82.3487,-234.7551C82.2381,-226.6828 82.1051,-216.9764 81.9819,-207.9817"/>
<polygon fill="#000000" stroke="#000000" points="81.8437,-197.8904 86.4803,-207.8277 81.9122,-202.8899 81.9807,-207.8894 81.9807,-207.8894 81.9807,-207.8894 81.9122,-202.8899 77.4812,-207.9511 81.8437,-197.8904 81.8437,-197.8904"/>
</g>
<!-- TestForTermination -->
<g id="node9" class="node">
<title>TestForTermination</title>
<polygon fill="#d3d3d3" stroke="#d3d3d3" points="125.5958,-124.8 -.0959,-106.8 125.5958,-88.8 251.2876,-106.8 125.5958,-124.8"/>
<text text-anchor="middle" x="125.5958" y="-102.6" font-family="Times,serif" font-size="14.00" fill="#000000">TestForTermination</text>
</g>
<!-- ReplacePopulation&#45;&gt;TestForTermination -->
<g id="edge8" class="edge">
<title>ReplacePopulation-&gt;TestForTermination</title>
<path fill="none" stroke="#000000" d="M92.4723,-161.7551C97.795,-152.9242 104.2966,-142.1374 110.1257,-132.4665"/>
<polygon fill="#000000" stroke="#000000" points="115.4478,-123.6365 114.1397,-134.5241 112.8667,-127.9188 110.2856,-132.201 110.2856,-132.201 110.2856,-132.201 112.8667,-127.9188 106.4315,-129.878 115.4478,-123.6365 115.4478,-123.6365"/>
</g>
<!-- TestForTermination&#45;&gt;SelectParents -->
<g id="edge10" class="edge">
<title>TestForTermination-&gt;SelectParents</title>
<path fill="none" stroke="#000000" d="M142.3522,-122.4961C155.1463,-136.2436 170.5958,-157.4678 170.5958,-179.8 170.5958,-414.6 170.5958,-414.6 170.5958,-414.6 170.5958,-431.8371 161.4861,-448.5018 151.5567,-461.5462"/>
<polygon fill="#000000" stroke="#000000" points="145.0009,-469.5651 147.8464,-458.9749 148.1656,-465.6941 151.3303,-461.8231 151.3303,-461.8231 151.3303,-461.8231 148.1656,-465.6941 154.8142,-464.6714 145.0009,-469.5651 145.0009,-469.5651"/>
<text text-anchor="middle" x="179.5404" y="-293" font-family="Arial" font-size="14.00" fill="#000000">No</text>
</g>
<!-- End -->
<g id="node10" class="node">
<title>End</title>
<ellipse fill="#d3d3d3" stroke="#d3d3d3" cx="125.5958" cy="-18" rx="27" ry="18"/>
<text text-anchor="middle" x="125.5958" y="-13.8" font-family="Times,serif" font-size="14.00" fill="#000000">End</text>
</g>
<!-- TestForTermination&#45;&gt;End -->
<g id="edge9" class="edge">
<title>TestForTermination-&gt;End</title>
<path fill="none" stroke="#000000" d="M125.5958,-88.4006C125.5958,-76.2949 125.5958,-60.2076 125.5958,-46.4674"/>
<polygon fill="#000000" stroke="#000000" points="125.5958,-36.072 130.0959,-46.072 125.5959,-41.072 125.5959,-46.072 125.5959,-46.072 125.5959,-46.072 125.5959,-41.072 121.0959,-46.0721 125.5958,-36.072 125.5958,-36.072"/>
<text text-anchor="middle" x="137.6554" y="-58.2" font-family="Arial" font-size="14.00" fill="#000000">Yes</text>
</g>
</g>
</svg>