<?xml version="1.0" encoding="UTF-8" standalone="no"?><!DOCTYPE svg PUBLIC "-//W3C//DTD SVG 1.1//EN" "http://www.w3.org/Graphics/SVG/1.1/DTD/svg11.dtd"><!-- Generated by graphviz version 2.40.1 (20161225.0304)
 --><!-- Title: G Pages: 1 --><svg xmlns="http://www.w3.org/2000/svg" xmlns:xlink="http://www.w3.org/1999/xlink" width="275pt" height="571pt" viewBox="0.00 0.00 275.23 570.80">
<g id="graph0" class="graph" transform="scale(1 1) rotate(0) translate(4 566.8)">
<title>G</title>
<polygon fill="#ffffff" stroke="transparent" points="-4,4 -4,-566.8 271.2312,-566.8 271.2312,4 -4,4"/>
<!-- Start -->
<g id="node1" class="node">
<title>Start</title>
<ellipse fill="#d3d3d3" stroke="#d3d3d3" cx="137.6354" cy="-544.8" rx="29.049" ry="18"/>
<text text-anchor="middle" x="137.6354" y="-540.6" font-family="Times,serif" font-size="14.00" fill="#000000">Start</text>
</g>
<!-- InitializeNests -->
<g id="node2" class="node">
<title>InitializeNests</title>
<polygon fill="#d3d3d3" stroke="#d3d3d3" points="185.9939,-489.8 89.2769,-489.8 89.2769,-453.8 185.9939,-453.8 185.9939,-489.8"/>
<text text-anchor="middle" x="137.6354" y="-467.6" font-family="Times,serif" font-size="14.00" fill="#000000">InitializeNests</text>
</g>
<!-- Start&#45;&gt;InitializeNests -->
<g id="edge1" class="edge">
<title>Start-&gt;InitializeNests</title>
<path fill="none" stroke="#000000" d="M137.6354,-526.7551C137.6354,-518.6828 137.6354,-508.9764 137.6354,-499.9817"/>
<polygon fill="#000000" stroke="#000000" points="137.6354,-489.8904 142.1355,-499.8903 137.6354,-494.8904 137.6355,-499.8904 137.6355,-499.8904 137.6355,-499.8904 137.6354,-494.8904 133.1355,-499.8904 137.6354,-489.8904 137.6354,-489.8904"/>
</g>
<!-- GetCuckoo -->
<g id="node3" class="node">
<title>GetCuckoo</title>
<polygon fill="#d3d3d3" stroke="#d3d3d3" points="177.3988,-416.8 97.872,-416.8 97.872,-380.8 177.3988,-380.8 177.3988,-416.8"/>
<text text-anchor="middle" x="137.6354" y="-394.6" font-family="Times,serif" font-size="14.00" fill="#000000">GetCuckoo</text>
</g>
<!-- InitializeNests&#45;&gt;GetCuckoo -->
<g id="edge2" class="edge">
<title>InitializeNests-&gt;GetCuckoo</title>
<path fill="none" stroke="#000000" d="M137.6354,-453.7551C137.6354,-445.6828 137.6354,-435.9764 137.6354,-426.9817"/>
<polygon fill="#000000" stroke="#000000" points="137.6354,-416.8904 142.1355,-426.8903 137.6354,-421.8904 137.6355,-426.8904 137.6355,-426.8904 137.6355,-426.8904 137.6354,-421.8904 133.1355,-426.8904 137.6354,-416.8904 137.6354,-416.8904"/>
</g>
<!-- EvaluateAndReplaceNests -->
<g id="node4" class="node">
<title>EvaluateAndReplaceNests</title>
<polygon fill="#d3d3d3" stroke="#d3d3d3" points="165.4064,-343.8 -.1356,-343.8 -.1356,-307.8 165.4064,-307.8 165.4064,-343.8"/>
<text text-anchor="middle" x="82.6354" y="-321.6" font-family="Times,serif" font-size="14.00" fill="#000000">EvaluateAndReplaceNests</text>
</g>
<!-- GetCuckoo&#45;&gt;EvaluateAndReplaceNests -->
<g id="edge3" class="edge">
<title>GetCuckoo-&gt;EvaluateAndReplaceNests</title>
<path fill="none" stroke="#000000" d="M124.0399,-380.7551C117.4953,-372.0686 109.525,-361.4898 102.3314,-351.942"/>
<polygon fill="#000000" stroke="#000000" points="96.2651,-343.8904 105.8767,-349.1693 99.2739,-347.8838 102.2827,-351.8772 102.2827,-351.8772 102.2827,-351.8772 99.2739,-347.8838 98.6886,-354.5851 96.2651,-343.8904 96.2651,-343.8904"/>
</g>
<!-- EmptyNestsProbability -->
<g id="node5" class="node">
<title>EmptyNestsProbability</title>
<polygon fill="#d3d3d3" stroke="#d3d3d3" points="157.7908,-270.8 11.48,-270.8 11.48,-234.8 157.7908,-234.8 157.7908,-270.8"/>
<text text-anchor="middle" x="84.6354" y="-248.6" font-family="Times,serif" font-size="14.00" fill="#000000">EmptyNestsProbability</text>
</g>
<!-- EvaluateAndReplaceNests&#45;&gt;EmptyNestsProbability -->
<g id="edge4" class="edge">
<title>EvaluateAndReplaceNests-&gt;EmptyNestsProbability</title>
<path fill="none" stroke="#000000" d="M83.1298,-307.7551C83.3509,-299.6828 83.6169,-289.9764 83.8633,-280.9817"/>
<polygon fill="#000000" stroke="#000000" points="84.1398,-270.8904 88.3641,-281.0099 84.0028,-275.8885 83.8658,-280.8866 83.8658,-280.8866 83.8658,-280.8866 84.0028,-275.8885 79.3675,-280.7633 84.1398,-270.8904 84.1398,-270.8904"/>
</g>
<!-- DiscoverNewSolutions -->
<g id="node6" class="node">
<title>DiscoverNewSolutions</title>
<polygon fill="#d3d3d3" stroke="#d3d3d3" points="163.4939,-197.8 17.7769,-197.8 17.7769,-161.8 163.4939,-161.8 163.4939,-197.8"/>
<text text-anchor="middle" x="90.6354" y="-175.6" font-family="Times,serif" font-size="14.00" fill="#000000">DiscoverNewSolutions</text>
</g>
<!-- EmptyNestsProbability&#45;&gt;DiscoverNewSolutions -->
<g id="edge5" class="edge">
<title>EmptyNestsProbability-&gt;DiscoverNewSolutions</title>
<path fill="none" stroke="#000000" d="M86.1185,-234.7551C86.782,-226.6828 87.5798,-216.9764 88.3191,-207.9817"/>
<polygon fill="#000000" stroke="#000000" points="89.1485,-197.8904 92.8142,-208.2254 88.7389,-202.8736 88.3293,-207.8568 88.3293,-207.8568 88.3293,-207.8568 88.7389,-202.8736 83.8444,-207.4881 89.1485,-197.8904 89.1485,-197.8904"/>
</g>
<!-- TestForTermination -->
<g id="node7" class="node">
<title>TestForTermination</title>
<polygon fill="#d3d3d3" stroke="#d3d3d3" points="141.6354,-124.8 15.9436,-106.8 141.6354,-88.8 267.3272,-106.8 141.6354,-124.8"/>
<text text-anchor="middle" x="141.6354" y="-102.6" font-family="Times,serif" font-size="14.00" fill="#000000">TestForTermination</text>
</g>
<!-- DiscoverNewSolutions&#45;&gt;TestForTermination -->
<g id="edge6" class="edge">
<title>DiscoverNewSolutions-&gt;TestForTermination</title>
<path fill="none" stroke="#000000" d="M103.2421,-161.7551C109.5389,-152.7421 117.259,-141.6918 124.1209,-131.8697"/>
<polygon fill="#000000" stroke="#000000" points="129.8729,-123.6365 127.8347,-134.4113 127.0094,-127.7353 124.1458,-131.8341 124.1458,-131.8341 124.1458,-131.8341 127.0094,-127.7353 120.4569,-129.2569 129.8729,-123.6365 129.8729,-123.6365"/>
</g>
<!-- TestForTermination&#45;&gt;GetCuckoo -->
<g id="edge8" class="edge">
<title>TestForTermination-&gt;GetCuckoo</title>
<path fill="none" stroke="#000000" d="M161.2944,-122.2472C176.0199,-135.6895 193.6354,-156.6152 193.6354,-179.8 193.6354,-325.8 193.6354,-325.8 193.6354,-325.8 193.6354,-344.2265 182.264,-360.8697 169.7696,-373.595"/>
<polygon fill="#000000" stroke="#000000" points="162.3608,-380.6186 166.5221,-370.4729 165.9894,-377.1786 169.6181,-373.7387 169.6181,-373.7387 169.6181,-373.7387 165.9894,-377.1786 172.714,-377.0044 162.3608,-380.6186 162.3608,-380.6186"/>
<text text-anchor="middle" x="202.58" y="-248.6" font-family="Arial" font-size="14.00" fill="#000000">No</text>
</g>
<!-- End -->
<g id="node8" class="node">
<title>End</title>
<ellipse fill="#d3d3d3" stroke="#d3d3d3" cx="141.6354" cy="-18" rx="27" ry="18"/>
<text text-anchor="middle" x="141.6354" y="-13.8" font-family="Times,serif" font-size="14.00" fill="#000000">End</text>
</g>
<!-- TestForTermination&#45;&gt;End -->
<g id="edge7" class="edge">
<title>TestForTermination-&gt;End</title>
<path fill="none" stroke="#000000" d="M141.6354,-88.4006C141.6354,-76.2949 141.6354,-60.2076 141.6354,-46.4674"/>
<polygon fill="#000000" stroke="#000000" points="141.6354,-36.072 146.1355,-46.072 141.6354,-41.072 141.6355,-46.072 141.6355,-46.072 141.6355,-46.072 141.6354,-41.072 137.1355,-46.0721 141.6354,-36.072 141.6354,-36.072"/>
<text text-anchor="middle" x="153.695" y="-58.2" font-family="Arial" font-size="14.00" fill="#000000">Yes</text>
</g>
</g>
</svg>