<?xml version="1.0" encoding="UTF-8" standalone="no"?><!DOCTYPE svg PUBLIC "-//W3C//DTD SVG 1.1//EN" "http://www.w3.org/Graphics/SVG/1.1/DTD/svg11.dtd"><!-- Generated by graphviz version 2.40.1 (20161225.0304)
 --><!-- Title: G Pages: 1 --><svg xmlns="http://www.w3.org/2000/svg" xmlns:xlink="http://www.w3.org/1999/xlink" width="273pt" height="571pt" viewBox="0.00 0.00 272.86 570.80">
<g id="graph0" class="graph" transform="scale(1 1) rotate(0) translate(4 566.8)">
<title>G</title>
<polygon fill="#ffffff" stroke="transparent" points="-4,4 -4,-566.8 268.8602,-566.8 268.8602,4 -4,4"/>
<!-- Start -->
<g id="node1" class="node">
<title>Start</title>
<ellipse fill="none" stroke="#000000" cx="135.2644" cy="-544.8" rx="29.049" ry="18"/>
<text text-anchor="middle" x="135.2644" y="-540.6" font-family="Times,serif" font-size="14.00" fill="#000000">Start</text>
</g>
<!-- InitializeParticles -->
<g id="node2" class="node">
<title>InitializeParticles</title>
<polygon fill="none" stroke="#000000" points="192.2252,-489.8 78.3036,-489.8 78.3036,-453.8 192.2252,-453.8 192.2252,-489.8"/>
<text text-anchor="middle" x="135.2644" y="-467.6" font-family="Times,serif" font-size="14.00" fill="#000000">InitializeParticles</text>
</g>
<!-- Start&#45;&gt;InitializeParticles -->
<g id="edge1" class="edge">
<title>Start-&gt;InitializeParticles</title>
<path fill="none" stroke="#000000" d="M135.2644,-526.7551C135.2644,-518.6828 135.2644,-508.9764 135.2644,-499.9817"/>
<polygon fill="#000000" stroke="#000000" points="138.7645,-499.8903 135.2644,-489.8904 131.7645,-499.8904 138.7645,-499.8903"/>
</g>
<!-- EvaluateParticles -->
<g id="node3" class="node">
<title>EvaluateParticles</title>
<polygon fill="none" stroke="#000000" points="191.9455,-416.8 78.5833,-416.8 78.5833,-380.8 191.9455,-380.8 191.9455,-416.8"/>
<text text-anchor="middle" x="135.2644" y="-394.6" font-family="Times,serif" font-size="14.00" fill="#000000">EvaluateParticles</text>
</g>
<!-- InitializeParticles&#45;&gt;EvaluateParticles -->
<g id="edge2" class="edge">
<title>InitializeParticles-&gt;EvaluateParticles</title>
<path fill="none" stroke="#000000" d="M135.2644,-453.7551C135.2644,-445.6828 135.2644,-435.9764 135.2644,-426.9817"/>
<polygon fill="#000000" stroke="#000000" points="138.7645,-426.8903 135.2644,-416.8904 131.7645,-426.8904 138.7645,-426.8903"/>
</g>
<!-- UpdateParticleVelocity -->
<g id="node4" class="node">
<title>UpdateParticleVelocity</title>
<polygon fill="none" stroke="#000000" points="156.1577,-343.8 8.3711,-343.8 8.3711,-307.8 156.1577,-307.8 156.1577,-343.8"/>
<text text-anchor="middle" x="82.2644" y="-321.6" font-family="Times,serif" font-size="14.00" fill="#000000">UpdateParticleVelocity</text>
</g>
<!-- EvaluateParticles&#45;&gt;UpdateParticleVelocity -->
<g id="edge3" class="edge">
<title>EvaluateParticles-&gt;UpdateParticleVelocity</title>
<path fill="none" stroke="#000000" d="M122.1633,-380.7551C115.9204,-372.1564 108.3312,-361.7034 101.4545,-352.2316"/>
<polygon fill="#000000" stroke="#000000" points="104.1059,-349.9262 95.3985,-343.8904 98.4414,-354.0388 104.1059,-349.9262"/>
</g>
<!-- UpdateParticlePositions -->
<g id="node5" class="node">
<title>UpdateParticlePositions</title>
<polygon fill="none" stroke="#000000" points="150.2939,-270.8 .2349,-270.8 .2349,-234.8 150.2939,-234.8 150.2939,-270.8"/>
<text text-anchor="middle" x="75.2644" y="-248.6" font-family="Times,serif" font-size="14.00" fill="#000000">UpdateParticlePositions</text>
</g>
<!-- UpdateParticleVelocity&#45;&gt;UpdateParticlePositions -->
<g id="edge4" class="edge">
<title>UpdateParticleVelocity-&gt;UpdateParticlePositions</title>
<path fill="none" stroke="#000000" d="M80.5341,-307.7551C79.76,-299.6828 78.8293,-289.9764 77.9668,-280.9817"/>
<polygon fill="#000000" stroke="#000000" points="81.4377,-280.5106 76.9991,-270.8904 74.4697,-281.1788 81.4377,-280.5106"/>
</g>
<!-- UpdateGlobalBest -->
<g id="node6" class="node">
<title>UpdateGlobalBest</title>
<polygon fill="none" stroke="#000000" points="152.1803,-197.8 32.3485,-197.8 32.3485,-161.8 152.1803,-161.8 152.1803,-197.8"/>
<text text-anchor="middle" x="92.2644" y="-175.6" font-family="Times,serif" font-size="14.00" fill="#000000">UpdateGlobalBest</text>
</g>
<!-- UpdateParticlePositions&#45;&gt;UpdateGlobalBest -->
<g id="edge5" class="edge">
<title>UpdateParticlePositions-&gt;UpdateGlobalBest</title>
<path fill="none" stroke="#000000" d="M79.4666,-234.7551C81.3669,-226.5951 83.6561,-216.7652 85.7698,-207.6887"/>
<polygon fill="#000000" stroke="#000000" points="89.1922,-208.4236 88.0516,-197.8904 82.3746,-206.8359 89.1922,-208.4236"/>
</g>
<!-- TestForTermination -->
<g id="node7" class="node">
<title>TestForTermination</title>
<polygon fill="none" stroke="#000000" points="139.2644,-124.8 13.5726,-106.8 139.2644,-88.8 264.9562,-106.8 139.2644,-124.8"/>
<text text-anchor="middle" x="139.2644" y="-102.6" font-family="Times,serif" font-size="14.00" fill="#000000">TestForTermination</text>
</g>
<!-- UpdateGlobalBest&#45;&gt;TestForTermination -->
<g id="edge6" class="edge">
<title>UpdateGlobalBest-&gt;TestForTermination</title>
<path fill="none" stroke="#000000" d="M103.8824,-161.7551C109.6266,-152.8331 116.6562,-141.9148 122.9318,-132.1677"/>
<polygon fill="#000000" stroke="#000000" points="125.9539,-133.9392 128.4245,-123.6365 120.0682,-130.1498 125.9539,-133.9392"/>
</g>
<!-- TestForTermination&#45;&gt;EvaluateParticles -->
<g id="edge8" class="edge">
<title>TestForTermination-&gt;EvaluateParticles</title>
<path fill="none" stroke="#000000" d="M156.7655,-122.3533C170.1282,-136.0137 186.2644,-157.1902 186.2644,-179.8 186.2644,-325.8 186.2644,-325.8 186.2644,-325.8 186.2644,-343.7241 175.8042,-360.3856 164.3583,-373.2519"/>
<polygon fill="#000000" stroke="#000000" points="161.5702,-371.1034 157.189,-380.7499 166.6296,-375.941 161.5702,-371.1034"/>
<text text-anchor="middle" x="194.8177" y="-248.6" font-family="Times,serif" font-size="14.00" fill="#000000">No</text>
</g>
<!-- End -->
<g id="node8" class="node">
<title>End</title>
<ellipse fill="none" stroke="#000000" cx="139.2644" cy="-18" rx="27" ry="18"/>
<text text-anchor="middle" x="139.2644" y="-13.8" font-family="Times,serif" font-size="14.00" fill="#000000">End</text>
</g>
<!-- TestForTermination&#45;&gt;End -->
<g id="edge7" class="edge">
<title>TestForTermination-&gt;End</title>
<path fill="none" stroke="#000000" d="M139.2644,-88.4006C139.2644,-76.2949 139.2644,-60.2076 139.2644,-46.4674"/>
<polygon fill="#000000" stroke="#000000" points="142.7645,-46.072 139.2644,-36.072 135.7645,-46.0721 142.7645,-46.072"/>
<text text-anchor="middle" x="150.1473" y="-58.2" font-family="Times,serif" font-size="14.00" fill="#000000">Yes</text>
</g>
</g>
</svg>