<?xml version="1.0" encoding="UTF-8" standalone="no"?><!DOCTYPE svg PUBLIC "-//W3C//DTD SVG 1.1//EN" "http://www.w3.org/Graphics/SVG/1.1/DTD/svg11.dtd"><!-- Generated by graphviz version 2.40.1 (20161225.0304)
 --><!-- Title: G Pages: 1 --><svg xmlns="http://www.w3.org/2000/svg" xmlns:xlink="http://www.w3.org/1999/xlink" width="259pt" height="514pt" viewBox="0.00 0.00 259.19 513.60">
<g id="graph0" class="graph" transform="scale(1 1) rotate(0) translate(4 509.6)">
<title>G</title>
<polygon fill="#ffffff" stroke="transparent" points="-4,4 -4,-509.6 255.1917,-509.6 255.1917,4 -4,4"/>
<!-- Start -->
<g id="node1" class="node">
<title>Start</title>
<ellipse fill="none" stroke="#000000" cx="131.5958" cy="-487.6" rx="29.049" ry="18"/>
<text text-anchor="middle" x="131.5958" y="-483.4" font-family="Times,serif" font-size="14.00" fill="#000000">Start</text>
</g>
<!-- InitializeBees -->
<g id="node2" class="node">
<title>InitializeBees</title>
<polygon fill="none" stroke="#000000" points="178.0637,-432.6 85.128,-432.6 85.128,-396.6 178.0637,-396.6 178.0637,-432.6"/>
<text text-anchor="middle" x="131.5958" y="-410.4" font-family="Times,serif" font-size="14.00" fill="#000000">InitializeBees</text>
</g>
<!-- Start&#45;&gt;InitializeBees -->
<g id="edge1" class="edge">
<title>Start-&gt;InitializeBees</title>
<path fill="none" stroke="#000000" d="M131.5958,-469.5551C131.5958,-461.4828 131.5958,-451.7764 131.5958,-442.7817"/>
<polygon fill="#000000" stroke="#000000" points="135.0959,-442.6903 131.5958,-432.6904 128.0959,-442.6904 135.0959,-442.6903"/>
</g>
<!-- ForwardPass -->
<g id="node3" class="node">
<title>ForwardPass</title>
<polygon fill="none" stroke="#000000" points="175.9078,-359.6 87.2839,-359.6 87.2839,-323.6 175.9078,-323.6 175.9078,-359.6"/>
<text text-anchor="middle" x="131.5958" y="-337.4" font-family="Times,serif" font-size="14.00" fill="#000000">ForwardPass</text>
</g>
<!-- InitializeBees&#45;&gt;ForwardPass -->
<g id="edge2" class="edge">
<title>InitializeBees-&gt;ForwardPass</title>
<path fill="none" stroke="#000000" d="M131.5958,-396.5551C131.5958,-388.4828 131.5958,-378.7764 131.5958,-369.7817"/>
<polygon fill="#000000" stroke="#000000" points="135.0959,-369.6903 131.5958,-359.6904 128.0959,-369.6904 135.0959,-369.6903"/>
</g>
<!-- BackwardPass -->
<g id="node4" class="node">
<title>BackwardPass</title>
<polygon fill="none" stroke="#000000" points="139.2305,-286.6 41.9612,-286.6 41.9612,-250.6 139.2305,-250.6 139.2305,-286.6"/>
<text text-anchor="middle" x="90.5958" y="-264.4" font-family="Times,serif" font-size="14.00" fill="#000000">BackwardPass</text>
</g>
<!-- ForwardPass&#45;&gt;BackwardPass -->
<g id="edge3" class="edge">
<title>ForwardPass-&gt;BackwardPass</title>
<path fill="none" stroke="#000000" d="M121.461,-323.5551C116.7302,-315.1319 110.9999,-304.9292 105.7674,-295.6128"/>
<polygon fill="#000000" stroke="#000000" points="108.7048,-293.6954 100.7562,-286.6904 102.6015,-297.1233 108.7048,-293.6954"/>
</g>
<!-- ScoutsDeployment -->
<g id="node5" class="node">
<title>ScoutsDeployment</title>
<polygon fill="none" stroke="#000000" points="142.6367,-197.8 20.555,-197.8 20.555,-161.8 142.6367,-161.8 142.6367,-197.8"/>
<text text-anchor="middle" x="81.5958" y="-175.6" font-family="Times,serif" font-size="14.00" fill="#000000">ScoutsDeployment</text>
</g>
<!-- BackwardPass&#45;&gt;ScoutsDeployment -->
<g id="edge4" class="edge">
<title>BackwardPass-&gt;ScoutsDeployment</title>
<path fill="none" stroke="#000000" d="M88.731,-250.2006C87.492,-237.975 85.8413,-221.6887 84.4398,-207.8599"/>
<polygon fill="#000000" stroke="#000000" points="87.9181,-207.4681 83.4275,-197.872 80.9537,-208.174 87.9181,-207.4681"/>
</g>
<!-- TestForTermination -->
<g id="node6" class="node">
<title>TestForTermination</title>
<polygon fill="none" stroke="#000000" points="125.5958,-124.8 -.0959,-106.8 125.5958,-88.8 251.2876,-106.8 125.5958,-124.8"/>
<text text-anchor="middle" x="125.5958" y="-102.6" font-family="Times,serif" font-size="14.00" fill="#000000">TestForTermination</text>
</g>
<!-- ScoutsDeployment&#45;&gt;TestForTermination -->
<g id="edge5" class="edge">
<title>ScoutsDeployment-&gt;TestForTermination</title>
<path fill="none" stroke="#000000" d="M92.4723,-161.7551C97.795,-152.9242 104.2966,-142.1374 110.1257,-132.4665"/>
<polygon fill="#000000" stroke="#000000" points="113.2832,-134.0078 115.4478,-123.6365 107.288,-130.3943 113.2832,-134.0078"/>
</g>
<!-- TestForTermination&#45;&gt;ForwardPass -->
<g id="edge7" class="edge">
<title>TestForTermination-&gt;ForwardPass</title>
<path fill="none" stroke="#000000" d="M135.8376,-123.4367C141.7254,-133.9992 148.5426,-148.1969 151.5958,-161.8 163.7469,-215.9358 157.8061,-231.8871 148.5958,-286.6 147.0695,-295.6672 144.4447,-305.3206 141.708,-313.9679"/>
<polygon fill="#000000" stroke="#000000" points="138.3521,-312.9677 138.5031,-323.5614 144.9914,-315.1857 138.3521,-312.9677"/>
<text text-anchor="middle" x="167.1491" y="-220" font-family="Times,serif" font-size="14.00" fill="#000000">No</text>
</g>
<!-- End -->
<g id="node7" class="node">
<title>End</title>
<ellipse fill="none" stroke="#000000" cx="125.5958" cy="-18" rx="27" ry="18"/>
<text text-anchor="middle" x="125.5958" y="-13.8" font-family="Times,serif" font-size="14.00" fill="#000000">End</text>
</g>
<!-- TestForTermination&#45;&gt;End -->
<g id="edge6" class="edge">
<title>TestForTermination-&gt;End</title>
<path fill="none" stroke="#000000" d="M125.5958,-88.4006C125.5958,-76.2949 125.5958,-60.2076 125.5958,-46.4674"/>
<polygon fill="#000000" stroke="#000000" points="129.0959,-46.072 125.5958,-36.072 122.0959,-46.0721 129.0959,-46.072"/>
<text text-anchor="middle" x="136.4787" y="-58.2" font-family="Times,serif" font-size="14.00" fill="#000000">Yes</text>
</g>
</g>
</svg>