<?xml version="1.0" encoding="UTF-8" standalone="no"?><!DOCTYPE svg PUBLIC "-//W3C//DTD SVG 1.1//EN" "http://www.w3.org/Graphics/SVG/1.1/DTD/svg11.dtd"><!-- Generated by graphviz version 2.40.1 (20161225.0304)
 --><!-- Title: G Pages: 1 --><svg xmlns="http://www.w3.org/2000/svg" xmlns:xlink="http://www.w3.org/1999/xlink" width="279pt" height="514pt" viewBox="0.00 0.00 279.35 513.60">
<g id="graph0" class="graph" transform="scale(1 1) rotate(0) translate(4 509.6)">
<title>G</title>
<polygon fill="#ffffff" stroke="transparent" points="-4,4 -4,-509.6 275.349,-509.6 275.349,4 -4,4"/>
<!-- Start -->
<g id="node1" class="node">
<title>Start</title>
<ellipse fill="none" stroke="#000000" cx="131.7532" cy="-487.6" rx="29.049" ry="18"/>
<text text-anchor="middle" x="131.7532" y="-483.4" font-family="Times,serif" font-size="14.00" fill="#000000">Start</text>
</g>
<!-- InitializeAnts -->
<g id="node2" class="node">
<title>InitializeAnts</title>
<polygon fill="none" stroke="#000000" points="177.9526,-432.6 85.5538,-432.6 85.5538,-396.6 177.9526,-396.6 177.9526,-432.6"/>
<text text-anchor="middle" x="131.7532" y="-410.4" font-family="Times,serif" font-size="14.00" fill="#000000">InitializeAnts</text>
</g>
<!-- Start&#45;&gt;InitializeAnts -->
<g id="edge1" class="edge">
<title>Start-&gt;InitializeAnts</title>
<path fill="none" stroke="#000000" d="M131.7532,-469.5551C131.7532,-461.4828 131.7532,-451.7764 131.7532,-442.7817"/>
<polygon fill="#000000" stroke="#000000" points="135.2533,-442.6903 131.7532,-432.6904 128.2533,-442.6904 135.2533,-442.6903"/>
</g>
<!-- AntsFindPath -->
<g id="node3" class="node">
<title>AntsFindPath</title>
<polygon fill="none" stroke="#000000" points="178.256,-359.6 85.2504,-359.6 85.2504,-323.6 178.256,-323.6 178.256,-359.6"/>
<text text-anchor="middle" x="131.7532" y="-337.4" font-family="Times,serif" font-size="14.00" fill="#000000">AntsFindPath</text>
</g>
<!-- InitializeAnts&#45;&gt;AntsFindPath -->
<g id="edge2" class="edge">
<title>InitializeAnts-&gt;AntsFindPath</title>
<path fill="none" stroke="#000000" d="M131.7532,-396.5551C131.7532,-388.4828 131.7532,-378.7764 131.7532,-369.7817"/>
<polygon fill="#000000" stroke="#000000" points="135.2533,-369.6903 131.7532,-359.6904 128.2533,-369.6904 135.2533,-369.6903"/>
</g>
<!-- UpdatePheromoneLevels -->
<g id="node4" class="node">
<title>UpdatePheromoneLevels</title>
<polygon fill="none" stroke="#000000" points="157.2604,-286.6 .246,-286.6 .246,-250.6 157.2604,-250.6 157.2604,-286.6"/>
<text text-anchor="middle" x="78.7532" y="-264.4" font-family="Times,serif" font-size="14.00" fill="#000000">UpdatePheromoneLevels</text>
</g>
<!-- AntsFindPath&#45;&gt;UpdatePheromoneLevels -->
<g id="edge3" class="edge">
<title>AntsFindPath-&gt;UpdatePheromoneLevels</title>
<path fill="none" stroke="#000000" d="M118.6521,-323.5551C112.4092,-314.9564 104.82,-304.5034 97.9433,-295.0316"/>
<polygon fill="#000000" stroke="#000000" points="100.5947,-292.7262 91.8873,-286.6904 94.9302,-296.8388 100.5947,-292.7262"/>
</g>
<!-- Evaporation -->
<g id="node5" class="node">
<title>Evaporation</title>
<polygon fill="none" stroke="#000000" points="149.1779,-197.8 64.3285,-197.8 64.3285,-161.8 149.1779,-161.8 149.1779,-197.8"/>
<text text-anchor="middle" x="106.7532" y="-175.6" font-family="Times,serif" font-size="14.00" fill="#000000">Evaporation</text>
</g>
<!-- UpdatePheromoneLevels&#45;&gt;Evaporation -->
<g id="edge4" class="edge">
<title>UpdatePheromoneLevels-&gt;Evaporation</title>
<path fill="none" stroke="#000000" d="M84.5548,-250.2006C88.4475,-237.8552 93.6459,-221.3689 98.0335,-207.4539"/>
<polygon fill="#000000" stroke="#000000" points="101.3855,-208.4617 101.0548,-197.872 94.7096,-206.3566 101.3855,-208.4617"/>
</g>
<!-- TestForTermination -->
<g id="node6" class="node">
<title>TestForTermination</title>
<polygon fill="none" stroke="#000000" points="145.7532,-124.8 20.0614,-106.8 145.7532,-88.8 271.445,-106.8 145.7532,-124.8"/>
<text text-anchor="middle" x="145.7532" y="-102.6" font-family="Times,serif" font-size="14.00" fill="#000000">TestForTermination</text>
</g>
<!-- Evaporation&#45;&gt;TestForTermination -->
<g id="edge5" class="edge">
<title>Evaporation-&gt;TestForTermination</title>
<path fill="none" stroke="#000000" d="M116.3937,-161.7551C121.1115,-152.9242 126.8743,-142.1374 132.041,-132.4665"/>
<polygon fill="#000000" stroke="#000000" points="135.1332,-134.1059 136.7584,-123.6365 128.9591,-130.8074 135.1332,-134.1059"/>
</g>
<!-- TestForTermination&#45;&gt;AntsFindPath -->
<g id="edge7" class="edge">
<title>TestForTermination-&gt;AntsFindPath</title>
<path fill="none" stroke="#000000" d="M152.1977,-124.0311C163.376,-156.4953 183.6237,-228.6656 166.7532,-286.6 163.841,-296.6008 158.4993,-306.5191 152.8513,-315.1219"/>
<polygon fill="#000000" stroke="#000000" points="149.8124,-313.3598 146.9436,-323.5589 155.5464,-317.3749 149.8124,-313.3598"/>
<text text-anchor="middle" x="182.3065" y="-220" font-family="Times,serif" font-size="14.00" fill="#000000">No</text>
</g>
<!-- End -->
<g id="node7" class="node">
<title>End</title>
<ellipse fill="none" stroke="#000000" cx="145.7532" cy="-18" rx="27" ry="18"/>
<text text-anchor="middle" x="145.7532" y="-13.8" font-family="Times,serif" font-size="14.00" fill="#000000">End</text>
</g>
<!-- TestForTermination&#45;&gt;End -->
<g id="edge6" class="edge">
<title>TestForTermination-&gt;End</title>
<path fill="none" stroke="#000000" d="M145.7532,-88.4006C145.7532,-76.2949 145.7532,-60.2076 145.7532,-46.4674"/>
<polygon fill="#000000" stroke="#000000" points="149.2533,-46.072 145.7532,-36.072 142.2533,-46.0721 149.2533,-46.072"/>
<text text-anchor="middle" x="156.6361" y="-58.2" font-family="Times,serif" font-size="14.00" fill="#000000">Yes</text>
</g>
</g>
</svg>