<?xml version="1.0" encoding="UTF-8" standalone="no"?><!DOCTYPE svg PUBLIC "-//W3C//DTD SVG 1.1//EN" "http://www.w3.org/Graphics/SVG/1.1/DTD/svg11.dtd"><!-- Generated by graphviz version 2.40.1 (20161225.0304)
 --><!-- Title: G Pages: 1 --><svg xmlns="http://www.w3.org/2000/svg" xmlns:xlink="http://www.w3.org/1999/xlink" width="259pt" height="514pt" viewBox="0.00 0.00 259.19 513.60">
<g id="graph0" class="graph" transform="scale(1 1) rotate(0) translate(4 509.6)">
<title>G</title>
<polygon fill="#ffffff" stroke="transparent" points="-4,4 -4,-509.6 255.1917,-509.6 255.1917,4 -4,4"/>
<!-- Start -->
<g id="node1" class="node">
<title>Start</title>
<ellipse fill="none" stroke="#000000" cx="127.5958" cy="-487.6" rx="29.049" ry="18"/>
<text text-anchor="middle" x="127.5958" y="-483.4" font-family="Times,serif" font-size="14.00" fill="#000000">Start</text>
</g>
<!-- InitializeBats -->
<g id="node2" class="node">
<title>InitializeBats</title>
<polygon fill="none" stroke="#000000" points="172.7403,-432.6 82.4514,-432.6 82.4514,-396.6 172.7403,-396.6 172.7403,-432.6"/>
<text text-anchor="middle" x="127.5958" y="-410.4" font-family="Times,serif" font-size="14.00" fill="#000000">InitializeBats</text>
</g>
<!-- Start&#45;&gt;InitializeBats -->
<g id="edge1" class="edge">
<title>Start-&gt;InitializeBats</title>
<path fill="none" stroke="#000000" d="M127.5958,-469.5551C127.5958,-461.4828 127.5958,-451.7764 127.5958,-442.7817"/>
<polygon fill="#000000" stroke="#000000" points="131.0959,-442.6903 127.5958,-432.6904 124.0959,-442.6904 131.0959,-442.6903"/>
</g>
<!-- BatsFly -->
<g id="node3" class="node">
<title>BatsFly</title>
<polygon fill="none" stroke="#000000" points="157.1571,-359.6 98.0346,-359.6 98.0346,-323.6 157.1571,-323.6 157.1571,-359.6"/>
<text text-anchor="middle" x="127.5958" y="-337.4" font-family="Times,serif" font-size="14.00" fill="#000000">BatsFly</text>
</g>
<!-- InitializeBats&#45;&gt;BatsFly -->
<g id="edge2" class="edge">
<title>InitializeBats-&gt;BatsFly</title>
<path fill="none" stroke="#000000" d="M127.5958,-396.5551C127.5958,-388.4828 127.5958,-378.7764 127.5958,-369.7817"/>
<polygon fill="#000000" stroke="#000000" points="131.0959,-369.6903 127.5958,-359.6904 124.0959,-369.6904 131.0959,-369.6903"/>
</g>
<!-- UpdateVelocities -->
<g id="node4" class="node">
<title>UpdateVelocities</title>
<polygon fill="none" stroke="#000000" points="141.2798,-286.6 27.9119,-286.6 27.9119,-250.6 141.2798,-250.6 141.2798,-286.6"/>
<text text-anchor="middle" x="84.5958" y="-264.4" font-family="Times,serif" font-size="14.00" fill="#000000">UpdateVelocities</text>
</g>
<!-- BatsFly&#45;&gt;UpdateVelocities -->
<g id="edge3" class="edge">
<title>BatsFly-&gt;UpdateVelocities</title>
<path fill="none" stroke="#000000" d="M116.9666,-323.5551C111.9533,-315.0441 105.87,-304.7165 100.3361,-295.3219"/>
<polygon fill="#000000" stroke="#000000" points="103.3429,-293.5303 95.2518,-286.6904 97.3115,-297.0831 103.3429,-293.5303"/>
</g>
<!-- UpdateFrequencies -->
<g id="node5" class="node">
<title>UpdateFrequencies</title>
<polygon fill="none" stroke="#000000" points="142.6591,-197.8 18.5326,-197.8 18.5326,-161.8 142.6591,-161.8 142.6591,-197.8"/>
<text text-anchor="middle" x="80.5958" y="-175.6" font-family="Times,serif" font-size="14.00" fill="#000000">UpdateFrequencies</text>
</g>
<!-- UpdateVelocities&#45;&gt;UpdateFrequencies -->
<g id="edge4" class="edge">
<title>UpdateVelocities-&gt;UpdateFrequencies</title>
<path fill="none" stroke="#000000" d="M83.767,-250.2006C83.2217,-238.0949 82.4971,-222.0076 81.8782,-208.2674"/>
<polygon fill="#000000" stroke="#000000" points="85.3564,-207.7044 81.4099,-197.872 78.3635,-208.0194 85.3564,-207.7044"/>
</g>
<!-- TestForTermination -->
<g id="node6" class="node">
<title>TestForTermination</title>
<polygon fill="none" stroke="#000000" points="125.5958,-124.8 -.0959,-106.8 125.5958,-88.8 251.2876,-106.8 125.5958,-124.8"/>
<text text-anchor="middle" x="125.5958" y="-102.6" font-family="Times,serif" font-size="14.00" fill="#000000">TestForTermination</text>
</g>
<!-- UpdateFrequencies&#45;&gt;TestForTermination -->
<g id="edge5" class="edge">
<title>UpdateFrequencies-&gt;TestForTermination</title>
<path fill="none" stroke="#000000" d="M91.7194,-161.7551C97.2193,-152.8331 103.9497,-141.9148 109.9582,-132.1677"/>
<polygon fill="#000000" stroke="#000000" points="112.9491,-133.9857 115.2172,-123.6365 106.9903,-130.3124 112.9491,-133.9857"/>
</g>
<!-- TestForTermination&#45;&gt;BatsFly -->
<g id="edge7" class="edge">
<title>TestForTermination-&gt;BatsFly</title>
<path fill="none" stroke="#000000" d="M135.8376,-123.4367C141.7254,-133.9992 148.5426,-148.1969 151.5958,-161.8 163.7438,-215.9219 161.8152,-232.2781 150.5958,-286.6 148.6794,-295.8792 145.1923,-305.5553 141.503,-314.1578"/>
<polygon fill="#000000" stroke="#000000" points="138.2828,-312.7842 137.3248,-323.3357 144.6536,-315.6846 138.2828,-312.7842"/>
<text text-anchor="middle" x="169.1491" y="-220" font-family="Times,serif" font-size="14.00" fill="#000000">No</text>
</g>
<!-- End -->
<g id="node7" class="node">
<title>End</title>
<ellipse fill="none" stroke="#000000" cx="125.5958" cy="-18" rx="27" ry="18"/>
<text text-anchor="middle" x="125.5958" y="-13.8" font-family="Times,serif" font-size="14.00" fill="#000000">End</text>
</g>
<!-- TestForTermination&#45;&gt;End -->
<g id="edge6" class="edge">
<title>TestForTermination-&gt;End</title>
<path fill="none" stroke="#000000" d="M125.5958,-88.4006C125.5958,-76.2949 125.5958,-60.2076 125.5958,-46.4674"/>
<polygon fill="#000000" stroke="#000000" points="129.0959,-46.072 125.5958,-36.072 122.0959,-46.0721 129.0959,-46.072"/>
<text text-anchor="middle" x="136.4787" y="-58.2" font-family="Times,serif" font-size="14.00" fill="#000000">Yes</text>
</g>
</g>
</svg>