<?xml version="1.0" encoding="UTF-8" standalone="no"?><!DOCTYPE svg PUBLIC "-//W3C//DTD SVG 1.1//EN" "http://www.w3.org/Graphics/SVG/1.1/DTD/svg11.dtd"><!-- Generated by graphviz version 2.40.1 (20161225.0304)
 --><!-- Title: G Pages: 1 --><svg xmlns="http://www.w3.org/2000/svg" xmlns:xlink="http://www.w3.org/1999/xlink" width="259pt" height="514pt" viewBox="0.00 0.00 259.19 513.60">
<g id="graph0" class="graph" transform="scale(1 1) rotate(0) translate(4 509.6)">
<title>G</title>
<polygon fill="#ffffff" stroke="transparent" points="-4,4 -4,-509.6 255.1917,-509.6 255.1917,4 -4,4"/>
<!-- Start -->
<g id="node1" class="node">
<title>Start</title>
<ellipse fill="none" stroke="#000000" cx="124.5958" cy="-487.6" rx="29.049" ry="18"/>
<text text-anchor="middle" x="124.5958" y="-483.4" font-family="Times,serif" font-size="14.00" fill="#000000">Start</text>
</g>
<!-- InitializeFireflies -->
<g id="node2" class="node">
<title>InitializeFireflies</title>
<polygon fill="none" stroke="#000000" points="181.0034,-432.6 68.1883,-432.6 68.1883,-396.6 181.0034,-396.6 181.0034,-432.6"/>
<text text-anchor="middle" x="124.5958" y="-410.4" font-family="Times,serif" font-size="14.00" fill="#000000">InitializeFireflies</text>
</g>
<!-- Start&#45;&gt;InitializeFireflies -->
<g id="edge1" class="edge">
<title>Start-&gt;InitializeFireflies</title>
<path fill="none" stroke="#000000" d="M124.5958,-469.5551C124.5958,-461.4828 124.5958,-451.7764 124.5958,-442.7817"/>
<polygon fill="#000000" stroke="#000000" points="128.0959,-442.6903 124.5958,-432.6904 121.0959,-442.6904 128.0959,-442.6903"/>
</g>
<!-- FirefliesGlow -->
<g id="node3" class="node">
<title>FirefliesGlow</title>
<polygon fill="none" stroke="#000000" points="171.3494,-359.6 77.8423,-359.6 77.8423,-323.6 171.3494,-323.6 171.3494,-359.6"/>
<text text-anchor="middle" x="124.5958" y="-337.4" font-family="Times,serif" font-size="14.00" fill="#000000">FirefliesGlow</text>
</g>
<!-- InitializeFireflies&#45;&gt;FirefliesGlow -->
<g id="edge2" class="edge">
<title>InitializeFireflies-&gt;FirefliesGlow</title>
<path fill="none" stroke="#000000" d="M124.5958,-396.5551C124.5958,-388.4828 124.5958,-378.7764 124.5958,-369.7817"/>
<polygon fill="#000000" stroke="#000000" points="128.0959,-369.6903 124.5958,-359.6904 121.0959,-369.6904 128.0959,-369.6903"/>
</g>
<!-- FirefliesAttract -->
<g id="node4" class="node">
<title>FirefliesAttract</title>
<polygon fill="none" stroke="#000000" points="136.1146,-286.6 35.0771,-286.6 35.0771,-250.6 136.1146,-250.6 136.1146,-286.6"/>
<text text-anchor="middle" x="85.5958" y="-264.4" font-family="Times,serif" font-size="14.00" fill="#000000">FirefliesAttract</text>
</g>
<!-- FirefliesGlow&#45;&gt;FirefliesAttract -->
<g id="edge3" class="edge">
<title>FirefliesGlow-&gt;FirefliesAttract</title>
<path fill="none" stroke="#000000" d="M114.9554,-323.5551C110.4553,-315.1319 105.0046,-304.9292 100.0273,-295.6128"/>
<polygon fill="#000000" stroke="#000000" points="103.0598,-293.8613 95.2606,-286.6904 96.8857,-297.1598 103.0598,-293.8613"/>
</g>
<!-- MoveFireflies -->
<g id="node5" class="node">
<title>MoveFireflies</title>
<polygon fill="none" stroke="#000000" points="135.405,-197.8 39.7867,-197.8 39.7867,-161.8 135.405,-161.8 135.405,-197.8"/>
<text text-anchor="middle" x="87.5958" y="-175.6" font-family="Times,serif" font-size="14.00" fill="#000000">MoveFireflies</text>
</g>
<!-- FirefliesAttract&#45;&gt;MoveFireflies -->
<g id="edge4" class="edge">
<title>FirefliesAttract-&gt;MoveFireflies</title>
<path fill="none" stroke="#000000" d="M86.0103,-250.2006C86.2829,-238.0949 86.6452,-222.0076 86.9547,-208.2674"/>
<polygon fill="#000000" stroke="#000000" points="90.4627,-207.9483 87.1888,-197.872 83.4644,-207.7906 90.4627,-207.9483"/>
</g>
<!-- TestForTermination -->
<g id="node6" class="node">
<title>TestForTermination</title>
<polygon fill="none" stroke="#000000" points="125.5958,-124.8 -.0959,-106.8 125.5958,-88.8 251.2876,-106.8 125.5958,-124.8"/>
<text text-anchor="middle" x="125.5958" y="-102.6" font-family="Times,serif" font-size="14.00" fill="#000000">TestForTermination</text>
</g>
<!-- MoveFireflies&#45;&gt;TestForTermination -->
<g id="edge5" class="edge">
<title>MoveFireflies-&gt;TestForTermination</title>
<path fill="none" stroke="#000000" d="M96.9891,-161.7551C101.5386,-153.0152 107.0854,-142.3596 112.0793,-132.7659"/>
<polygon fill="#000000" stroke="#000000" points="115.3188,-134.1227 116.8317,-123.6365 109.1097,-130.8906 115.3188,-134.1227"/>
</g>
<!-- TestForTermination&#45;&gt;FirefliesGlow -->
<g id="edge7" class="edge">
<title>TestForTermination-&gt;FirefliesGlow</title>
<path fill="none" stroke="#000000" d="M133.0448,-123.7638C137.3341,-134.4493 142.3143,-148.6616 144.5958,-161.8 151.1395,-199.4819 148.8621,-268.8889 145.5958,-286.6 143.8854,-295.8748 140.6797,-305.6091 137.2789,-314.2667"/>
<polygon fill="#000000" stroke="#000000" points="134.0462,-312.9253 133.4256,-323.5019 140.5064,-315.6208 134.0462,-312.9253"/>
<text text-anchor="middle" x="158.1491" y="-220" font-family="Times,serif" font-size="14.00" fill="#000000">No</text>
</g>
<!-- End -->
<g id="node7" class="node">
<title>End</title>
<ellipse fill="none" stroke="#000000" cx="125.5958" cy="-18" rx="27" ry="18"/>
<text text-anchor="middle" x="125.5958" y="-13.8" font-family="Times,serif" font-size="14.00" fill="#000000">End</text>
</g>
<!-- TestForTermination&#45;&gt;End -->
<g id="edge6" class="edge">
<title>TestForTermination-&gt;End</title>
<path fill="none" stroke="#000000" d="M125.5958,-88.4006C125.5958,-76.2949 125.5958,-60.2076 125.5958,-46.4674"/>
<polygon fill="#000000" stroke="#000000" points="129.0959,-46.072 125.5958,-36.072 122.0959,-46.0721 129.0959,-46.072"/>
<text text-anchor="middle" x="136.4787" y="-58.2" font-family="Times,serif" font-size="14.00" fill="#000000">Yes</text>
</g>
</g>
</svg>