<?xml version="1.0" encoding="UTF-8" standalone="no"?><!DOCTYPE svg PUBLIC "-//W3C//DTD SVG 1.1//EN" "http://www.w3.org/Graphics/SVG/1.1/DTD/svg11.dtd"><!-- Generated by graphviz version 2.40.1 (20161225.0304)
 --><!-- Title: GregorianLeapYear Pages: 1 --><svg xmlns="http://www.w3.org/2000/svg" xmlns:xlink="http://www.w3.org/1999/xlink" width="285pt" height="310pt" viewBox="0.00 0.00 284.67 310.40">
<g id="graph0" class="graph" transform="scale(1 1) rotate(0) translate(4 306.4)">
<title>GregorianLeapYear</title>
<polygon fill="#ffffff" stroke="transparent" points="-4,4 -4,-306.4 280.6735,-306.4 280.6735,4 -4,4"/>
<!-- A -->
<g id="node1" class="node">
<title>A</title>
<ellipse fill="none" stroke="#000000" cx="168.2642" cy="-284.4" rx="72.1625" ry="18"/>
<text text-anchor="middle" x="168.2642" y="-280.2" font-family="Times,serif" font-size="14.00" fill="#000000">Year % 4 == 0?</text>
</g>
<!-- B -->
<g id="node2" class="node">
<title>B</title>
<ellipse fill="none" stroke="#000000" cx="113.2642" cy="-195.6" rx="81.976" ry="18"/>
<text text-anchor="middle" x="113.2642" y="-191.4" font-family="Times,serif" font-size="14.00" fill="#000000">Year % 100 == 0?</text>
</g>
<!-- A&#45;&gt;B -->
<g id="edge1" class="edge">
<title>A-&gt;B</title>
<path fill="none" stroke="#000000" d="M157.1341,-266.43C149.3065,-253.7919 138.6967,-236.662 129.8719,-222.414"/>
<polygon fill="#000000" stroke="#000000" points="132.6188,-220.2018 124.3777,-213.5433 126.6677,-223.8877 132.6188,-220.2018"/>
<text text-anchor="middle" x="157.1471" y="-235.8" font-family="Times,serif" font-size="14.00" fill="#000000">Yes</text>
</g>
<!-- E -->
<g id="node5" class="node">
<title>E</title>
<ellipse fill="none" stroke="#000000" cx="208.2642" cy="-18" rx="68.3189" ry="18"/>
<text text-anchor="middle" x="208.2642" y="-13.8" font-family="Times,serif" font-size="14.00" fill="#000000">Not Leap Year</text>
</g>
<!-- A&#45;&gt;E -->
<g id="edge2" class="edge">
<title>A-&gt;E</title>
<path fill="none" stroke="#000000" d="M180.3141,-266.3748C188.8016,-252.5779 199.4731,-232.7279 204.2642,-213.6 218.8228,-155.4758 215.2158,-84.5733 211.566,-46.1062"/>
<polygon fill="#000000" stroke="#000000" points="215.0476,-45.7472 210.5505,-36.1542 208.0838,-46.4579 215.0476,-45.7472"/>
<text text-anchor="middle" x="222.8175" y="-147" font-family="Times,serif" font-size="14.00" fill="#000000">No</text>
</g>
<!-- C -->
<g id="node3" class="node">
<title>C</title>
<ellipse fill="none" stroke="#000000" cx="113.2642" cy="-106.8" rx="81.976" ry="18"/>
<text text-anchor="middle" x="113.2642" y="-102.6" font-family="Times,serif" font-size="14.00" fill="#000000">Year % 400 == 0?</text>
</g>
<!-- B&#45;&gt;C -->
<g id="edge3" class="edge">
<title>B-&gt;C</title>
<path fill="none" stroke="#000000" d="M113.2642,-177.2006C113.2642,-165.0949 113.2642,-149.0076 113.2642,-135.2674"/>
<polygon fill="#000000" stroke="#000000" points="116.7643,-134.872 113.2642,-124.872 109.7643,-134.8721 116.7643,-134.872"/>
<text text-anchor="middle" x="124.1471" y="-147" font-family="Times,serif" font-size="14.00" fill="#000000">Yes</text>
</g>
<!-- D -->
<g id="node4" class="node">
<title>D</title>
<ellipse fill="none" stroke="#000000" cx="54.2642" cy="-18" rx="51.5233" ry="18"/>
<text text-anchor="middle" x="54.2642" y="-13.8" font-family="Times,serif" font-size="14.00" fill="#000000">Leap Year</text>
</g>
<!-- B&#45;&gt;D -->
<g id="edge4" class="edge">
<title>B-&gt;D</title>
<path fill="none" stroke="#000000" d="M71.3803,-180.0674C47.3261,-168.7258 19.1848,-150.7543 5.1576,-124.8 -9.7064,-97.2976 10.8021,-64.4676 29.6723,-42.5338"/>
<polygon fill="#000000" stroke="#000000" points="32.3884,-44.7481 36.4819,-34.976 27.1879,-40.0625 32.3884,-44.7481"/>
<text text-anchor="middle" x="13.8175" y="-102.6" font-family="Times,serif" font-size="14.00" fill="#000000">No</text>
</g>
<!-- C&#45;&gt;D -->
<g id="edge5" class="edge">
<title>C-&gt;D</title>
<path fill="none" stroke="#000000" d="M101.3246,-88.83C92.792,-75.9876 81.1776,-58.507 71.6222,-44.1253"/>
<polygon fill="#000000" stroke="#000000" points="74.4339,-42.0325 65.9846,-35.6402 68.6034,-45.9063 74.4339,-42.0325"/>
<text text-anchor="middle" x="100.1471" y="-58.2" font-family="Times,serif" font-size="14.00" fill="#000000">Yes</text>
</g>
<!-- C&#45;&gt;E -->
<g id="edge6" class="edge">
<title>C-&gt;E</title>
<path fill="none" stroke="#000000" d="M132.0331,-89.256C146.3458,-75.8773 166.2333,-57.2878 182.1064,-42.4506"/>
<polygon fill="#000000" stroke="#000000" points="184.6188,-44.8932 189.5342,-35.5076 179.8387,-39.7794 184.6188,-44.8932"/>
<text text-anchor="middle" x="178.8175" y="-58.2" font-family="Times,serif" font-size="14.00" fill="#000000">No</text>
</g>
</g>
</svg>