<?xml version="1.0" encoding="UTF-8" standalone="no"?><!DOCTYPE svg PUBLIC "-//W3C//DTD SVG 1.1//EN" "http://www.w3.org/Graphics/SVG/1.1/DTD/svg11.dtd"><!-- Generated by graphviz version 2.40.1 (20161225.0304)
 --><!-- Title: Sainte_Lague Pages: 1 --><svg xmlns="http://www.w3.org/2000/svg" xmlns:xlink="http://www.w3.org/1999/xlink" width="894pt" height="105pt" viewBox="0.00 0.00 894.43 105.00">
<g id="graph0" class="graph" transform="scale(1 1) rotate(0) translate(4 101)">
<title>Sainte_Lague</title>
<polygon fill="#ffffff" stroke="transparent" points="-4,4 -4,-101 890.4298,-101 890.4298,4 -4,4"/>
<!-- start -->
<g id="node1" class="node">
<title>start</title>
<polygon fill="none" stroke="#000000" points="0,-33.5 0,-69.5 54,-69.5 54,-33.5 0,-33.5"/>
<text text-anchor="middle" x="27" y="-48.5" font-family="Arial" font-size="10.00" fill="#000000">Start</text>
</g>
<!-- input_data -->
<g id="node2" class="node">
<title>input_data</title>
<polygon fill="none" stroke="#000000" points="91,-33.5 91,-69.5 180.336,-69.5 180.336,-33.5 91,-33.5"/>
<text text-anchor="middle" x="135.668" y="-48.5" font-family="Arial" font-size="10.00" fill="#000000">Dane wejściowe</text>
</g>
<!-- start&#45;&gt;input_data -->
<g id="edge1" class="edge">
<title>start-&gt;input_data</title>
<path fill="none" stroke="#000000" d="M54.1412,-51.5C62.18,-51.5 71.2888,-51.5 80.4317,-51.5"/>
<polygon fill="#000000" stroke="#000000" points="80.7136,-55.0001 90.7136,-51.5 80.7136,-48.0001 80.7136,-55.0001"/>
</g>
<!-- init_divisors -->
<g id="node3" class="node">
<title>init_divisors</title>
<polygon fill="none" stroke="#000000" points="217.336,-33.5 217.336,-69.5 312.219,-69.5 312.219,-33.5 217.336,-33.5"/>
<text text-anchor="middle" x="264.7775" y="-48.5" font-family="Arial" font-size="10.00" fill="#000000">Inicjalizuj dzielniki</text>
</g>
<!-- input_data&#45;&gt;init_divisors -->
<g id="edge2" class="edge">
<title>input_data-&gt;init_divisors</title>
<path fill="none" stroke="#000000" d="M180.4619,-51.5C188.9423,-51.5 197.9261,-51.5 206.7459,-51.5"/>
<polygon fill="#000000" stroke="#000000" points="206.9842,-55.0001 216.9842,-51.5 206.9842,-48.0001 206.9842,-55.0001"/>
</g>
<!-- find_max -->
<g id="node4" class="node">
<title>find_max</title>
<polygon fill="none" stroke="#000000" points="349.219,-33.5 349.219,-69.5 457.989,-69.5 457.989,-33.5 349.219,-33.5"/>
<text text-anchor="middle" x="403.604" y="-48.5" font-family="Arial" font-size="10.00" fill="#000000">Znajdź max wartość</text>
</g>
<!-- init_divisors&#45;&gt;find_max -->
<g id="edge3" class="edge">
<title>init_divisors-&gt;find_max</title>
<path fill="none" stroke="#000000" d="M312.5537,-51.5C321.1016,-51.5 330.136,-51.5 339.0624,-51.5"/>
<polygon fill="#000000" stroke="#000000" points="339.063,-55.0001 349.063,-51.5 339.0629,-48.0001 339.063,-55.0001"/>
</g>
<!-- allocate_seat -->
<g id="node5" class="node">
<title>allocate_seat</title>
<polygon fill="none" stroke="#000000" points="702.7528,-60.5 702.7528,-96.5 795.4298,-96.5 795.4298,-60.5 702.7528,-60.5"/>
<text text-anchor="middle" x="749.0913" y="-75.5" font-family="Arial" font-size="10.00" fill="#000000">Przydziel mandat</text>
</g>
<!-- find_max&#45;&gt;allocate_seat -->
<g id="edge4" class="edge">
<title>find_max-&gt;allocate_seat</title>
<path fill="none" stroke="#000000" d="M458.3028,-66.3893C464.2382,-67.6192 470.2174,-68.6965 475.989,-69.5 550.1464,-79.8245 636.6693,-80.8394 692.1241,-80.0994"/>
<polygon fill="#000000" stroke="#000000" points="692.5039,-83.594 702.4473,-79.9365 692.3933,-76.5949 692.5039,-83.594"/>
</g>
<!-- output -->
<g id="node6" class="node">
<title>output</title>
<polygon fill="none" stroke="#000000" points="722.0913,-.5 722.0913,-36.5 776.0913,-36.5 776.0913,-.5 722.0913,-.5"/>
<text text-anchor="middle" x="749.0913" y="-15.5" font-family="Arial" font-size="10.00" fill="#000000">Wynik</text>
</g>
<!-- find_max&#45;&gt;output -->
<g id="edge6" class="edge">
<title>find_max-&gt;output</title>
<path fill="none" stroke="#000000" d="M458.3214,-36.7395C464.2533,-35.485 470.2265,-34.3668 475.989,-33.5 559.4566,-20.945 658.6816,-18.5933 711.54,-18.3286"/>
<polygon fill="#000000" stroke="#000000" points="711.7938,-21.8281 721.7842,-18.301 711.7748,-14.8281 711.7938,-21.8281"/>
</g>
<!-- allocate_seat&#45;&gt;find_max -->
<g id="edge5" class="edge">
<title>allocate_seat-&gt;find_max</title>
<path fill="none" stroke="#000000" d="M717.3253,-60.4802C707.2325,-55.671 695.8126,-51.1369 684.7528,-48.7 611.9023,-32.6478 525.8371,-36.7588 468.2967,-42.6799"/>
<polygon fill="#000000" stroke="#000000" points="467.8174,-39.2112 458.2498,-43.7621 468.5671,-46.171 467.8174,-39.2112"/>
<text text-anchor="middle" x="580.3709" y="-53.7" font-family="Times,serif" font-size="14.00" fill="#000000">Powtarzaj dla wszystkich mandatów</text>
</g>
<!-- end -->
<g id="node7" class="node">
<title>end</title>
<polygon fill="none" stroke="#000000" points="832.4298,-.5 832.4298,-36.5 886.4298,-36.5 886.4298,-.5 832.4298,-.5"/>
<text text-anchor="middle" x="859.4298" y="-15.5" font-family="Arial" font-size="10.00" fill="#000000">Koniec</text>
</g>
<!-- output&#45;&gt;end -->
<g id="edge7" class="edge">
<title>output-&gt;end</title>
<path fill="none" stroke="#000000" d="M776.366,-18.5C790.0259,-18.5 806.7819,-18.5 821.6579,-18.5"/>
<polygon fill="#000000" stroke="#000000" points="822.0865,-22.0001 832.0865,-18.5 822.0864,-15.0001 822.0865,-22.0001"/>
</g>
</g>
</svg>