<?xml version="1.0" encoding="UTF-8" standalone="no"?><!DOCTYPE svg PUBLIC "-//W3C//DTD SVG 1.1//EN" "http://www.w3.org/Graphics/SVG/1.1/DTD/svg11.dtd"><!-- Generated by graphviz version 2.40.1 (20161225.0304)
 --><!-- Title: NearestNeighborFlowchart Pages: 1 --><svg xmlns="http://www.w3.org/2000/svg" xmlns:xlink="http://www.w3.org/1999/xlink" width="257pt" height="332pt" viewBox="0.00 0.00 257.45 332.00">
<g id="graph0" class="graph" transform="scale(1 1) rotate(0) translate(4 328)">
<title>NearestNeighborFlowchart</title>
<polygon fill="#ffffff" stroke="transparent" points="-4,4 -4,-328 253.4535,-328 253.4535,4 -4,4"/>
<!-- A -->
<g id="node1" class="node">
<title>A</title>
<ellipse fill="none" stroke="#000000" cx="124.7268" cy="-306" rx="29.049" ry="18"/>
<text text-anchor="middle" x="124.7268" y="-301.8" font-family="Times,serif" font-size="14.00" fill="#000000">Start</text>
</g>
<!-- B -->
<g id="node2" class="node">
<title>B</title>
<ellipse fill="none" stroke="#000000" cx="124.7268" cy="-234" rx="124.9539" ry="18"/>
<text text-anchor="middle" x="124.7268" y="-229.8" font-family="Times,serif" font-size="14.00" fill="#000000">Calculate Euclidean Distance</text>
</g>
<!-- A&#45;&gt;B -->
<g id="edge1" class="edge">
<title>A-&gt;B</title>
<path fill="none" stroke="#000000" d="M124.7268,-287.8314C124.7268,-280.131 124.7268,-270.9743 124.7268,-262.4166"/>
<polygon fill="#000000" stroke="#000000" points="128.2269,-262.4132 124.7268,-252.4133 121.2269,-262.4133 128.2269,-262.4132"/>
</g>
<!-- C -->
<g id="node3" class="node">
<title>C</title>
<ellipse fill="none" stroke="#000000" cx="124.7268" cy="-162" rx="99.5597" ry="18"/>
<text text-anchor="middle" x="124.7268" y="-157.8" font-family="Times,serif" font-size="14.00" fill="#000000">Find Nearest Neighbor</text>
</g>
<!-- B&#45;&gt;C -->
<g id="edge2" class="edge">
<title>B-&gt;C</title>
<path fill="none" stroke="#000000" d="M124.7268,-215.8314C124.7268,-208.131 124.7268,-198.9743 124.7268,-190.4166"/>
<polygon fill="#000000" stroke="#000000" points="128.2269,-190.4132 124.7268,-180.4133 121.2269,-190.4133 128.2269,-190.4132"/>
</g>
<!-- D -->
<g id="node4" class="node">
<title>D</title>
<ellipse fill="none" stroke="#000000" cx="124.7268" cy="-90" rx="84.5633" ry="18"/>
<text text-anchor="middle" x="124.7268" y="-85.8" font-family="Times,serif" font-size="14.00" fill="#000000">Classify Test Point</text>
</g>
<!-- C&#45;&gt;D -->
<g id="edge3" class="edge">
<title>C-&gt;D</title>
<path fill="none" stroke="#000000" d="M124.7268,-143.8314C124.7268,-136.131 124.7268,-126.9743 124.7268,-118.4166"/>
<polygon fill="#000000" stroke="#000000" points="128.2269,-118.4132 124.7268,-108.4133 121.2269,-118.4133 128.2269,-118.4132"/>
</g>
<!-- E -->
<g id="node5" class="node">
<title>E</title>
<ellipse fill="none" stroke="#000000" cx="124.7268" cy="-18" rx="27" ry="18"/>
<text text-anchor="middle" x="124.7268" y="-13.8" font-family="Times,serif" font-size="14.00" fill="#000000">End</text>
</g>
<!-- D&#45;&gt;E -->
<g id="edge4" class="edge">
<title>D-&gt;E</title>
<path fill="none" stroke="#000000" d="M124.7268,-71.8314C124.7268,-64.131 124.7268,-54.9743 124.7268,-46.4166"/>
<polygon fill="#000000" stroke="#000000" points="128.2269,-46.4132 124.7268,-36.4133 121.2269,-46.4133 128.2269,-46.4132"/>
</g>
</g>
</svg>