<?xml version="1.0" encoding="UTF-8" standalone="no"?><!DOCTYPE svg PUBLIC "-//W3C//DTD SVG 1.1//EN" "http://www.w3.org/Graphics/SVG/1.1/DTD/svg11.dtd"><!-- Generated by graphviz version 2.40.1 (20161225.0304)
 --><!-- Title: %0 Pages: 1 --><svg xmlns="http://www.w3.org/2000/svg" xmlns:xlink="http://www.w3.org/1999/xlink" width="324pt" height="1916pt" viewBox="0.00 0.00 324.13 1916.00">
<g id="graph0" class="graph" transform="scale(1 1) rotate(0) translate(4 1912)">
<title>%0</title>
<polygon fill="#ffffff" stroke="transparent" points="-4,4 -4,-1912 320.1278,-1912 320.1278,4 -4,4"/>
<!-- A -->
<g id="node1" class="node">
<title>A</title>
<polygon fill="#add8e6" stroke="#add8e6" points="210.5955,-1908 105.5323,-1908 105.5323,-1872 210.5955,-1872 210.5955,-1908"/>
<text text-anchor="middle" x="158.0639" y="-1885.8" font-family="Times,serif" font-size="14.00" fill="#000000">1. Import heapq</text>
</g>
<!-- B -->
<g id="node2" class="node">
<title>B</title>
<polygon fill="#add8e6" stroke="#add8e6" points="273.804,-1836 42.3238,-1836 42.3238,-1800 273.804,-1800 273.804,-1836"/>
<text text-anchor="middle" x="158.0639" y="-1813.8" font-family="Times,serif" font-size="14.00" fill="#000000">2. Define bellman_ford(graph, source)</text>
</g>
<!-- A&#45;&gt;B -->
<g id="edge1" class="edge">
<title>A-&gt;B</title>
<path fill="none" stroke="#000000" d="M158.0639,-1871.8314C158.0639,-1864.131 158.0639,-1854.9743 158.0639,-1846.4166"/>
<polygon fill="#000000" stroke="#000000" points="161.564,-1846.4132 158.0639,-1836.4133 154.564,-1846.4133 161.564,-1846.4132"/>
</g>
<!-- C -->
<g id="node3" class="node">
<title>C</title>
<polygon fill="#add8e6" stroke="#add8e6" points="227.6914,-1764 88.4364,-1764 88.4364,-1728 227.6914,-1728 227.6914,-1764"/>
<text text-anchor="middle" x="158.0639" y="-1741.8" font-family="Times,serif" font-size="14.00" fill="#000000">2.1. Initialize distance</text>
</g>
<!-- B&#45;&gt;C -->
<g id="edge2" class="edge">
<title>B-&gt;C</title>
<path fill="none" stroke="#000000" d="M158.0639,-1799.8314C158.0639,-1792.131 158.0639,-1782.9743 158.0639,-1774.4166"/>
<polygon fill="#000000" stroke="#000000" points="161.564,-1774.4132 158.0639,-1764.4133 154.564,-1774.4133 161.564,-1774.4132"/>
</g>
<!-- D -->
<g id="node4" class="node">
<title>D</title>
<polygon fill="#add8e6" stroke="#add8e6" points="249.8992,-1692 66.2286,-1692 66.2286,-1656 249.8992,-1656 249.8992,-1692"/>
<text text-anchor="middle" x="158.0639" y="-1669.8" font-family="Times,serif" font-size="14.00" fill="#000000">2.2. Loop for |V| - 1 iterations</text>
</g>
<!-- C&#45;&gt;D -->
<g id="edge3" class="edge">
<title>C-&gt;D</title>
<path fill="none" stroke="#000000" d="M158.0639,-1727.8314C158.0639,-1720.131 158.0639,-1710.9743 158.0639,-1702.4166"/>
<polygon fill="#000000" stroke="#000000" points="161.564,-1702.4132 158.0639,-1692.4133 154.564,-1702.4133 161.564,-1702.4132"/>
</g>
<!-- E -->
<g id="node5" class="node">
<title>E</title>
<polygon fill="#add8e6" stroke="#add8e6" points="248.8229,-1620 67.3049,-1620 67.3049,-1584 248.8229,-1584 248.8229,-1620"/>
<text text-anchor="middle" x="158.0639" y="-1597.8" font-family="Times,serif" font-size="14.00" fill="#000000">2.2.1. Loop through all nodes</text>
</g>
<!-- D&#45;&gt;E -->
<g id="edge4" class="edge">
<title>D-&gt;E</title>
<path fill="none" stroke="#000000" d="M158.0639,-1655.8314C158.0639,-1648.131 158.0639,-1638.9743 158.0639,-1630.4166"/>
<polygon fill="#000000" stroke="#000000" points="161.564,-1630.4132 158.0639,-1620.4133 154.564,-1630.4133 161.564,-1630.4132"/>
</g>
<!-- F -->
<g id="node6" class="node">
<title>F</title>
<polygon fill="#add8e6" stroke="#add8e6" points="300.6355,-1548 15.4923,-1548 15.4923,-1512 300.6355,-1512 300.6355,-1548"/>
<text text-anchor="middle" x="158.0639" y="-1525.8" font-family="Times,serif" font-size="14.00" fill="#000000">2.2.1.1. Loop through all neighbors and weights</text>
</g>
<!-- E&#45;&gt;F -->
<g id="edge5" class="edge">
<title>E-&gt;F</title>
<path fill="none" stroke="#000000" d="M158.0639,-1583.8314C158.0639,-1576.131 158.0639,-1566.9743 158.0639,-1558.4166"/>
<polygon fill="#000000" stroke="#000000" points="161.564,-1558.4132 158.0639,-1548.4133 154.564,-1558.4133 161.564,-1558.4132"/>
</g>
<!-- G -->
<g id="node7" class="node">
<title>G</title>
<polygon fill="#add8e6" stroke="#add8e6" points="260.122,-1476 56.0058,-1476 56.0058,-1440 260.122,-1440 260.122,-1476"/>
<text text-anchor="middle" x="158.0639" y="-1453.8" font-family="Times,serif" font-size="14.00" fill="#000000">2.2.1.1.1. Calculate new_distance</text>
</g>
<!-- F&#45;&gt;G -->
<g id="edge6" class="edge">
<title>F-&gt;G</title>
<path fill="none" stroke="#000000" d="M158.0639,-1511.8314C158.0639,-1504.131 158.0639,-1494.9743 158.0639,-1486.4166"/>
<polygon fill="#000000" stroke="#000000" points="161.564,-1486.4132 158.0639,-1476.4133 154.564,-1486.4133 161.564,-1486.4132"/>
</g>
<!-- H -->
<g id="node8" class="node">
<title>H</title>
<polygon fill="#add8e6" stroke="#add8e6" points="266.5549,-1404 49.5729,-1404 49.5729,-1368 266.5549,-1368 266.5549,-1404"/>
<text text-anchor="middle" x="158.0639" y="-1381.8" font-family="Times,serif" font-size="14.00" fill="#000000">2.2.1.1.2. Update distance if needed</text>
</g>
<!-- G&#45;&gt;H -->
<g id="edge7" class="edge">
<title>G-&gt;H</title>
<path fill="none" stroke="#000000" d="M158.0639,-1439.8314C158.0639,-1432.131 158.0639,-1422.9743 158.0639,-1414.4166"/>
<polygon fill="#000000" stroke="#000000" points="161.564,-1414.4132 158.0639,-1404.4133 154.564,-1414.4133 161.564,-1414.4132"/>
</g>
<!-- I -->
<g id="node9" class="node">
<title>I</title>
<polygon fill="#add8e6" stroke="#add8e6" points="243.3229,-1332 72.8049,-1332 72.8049,-1296 243.3229,-1296 243.3229,-1332"/>
<text text-anchor="middle" x="158.0639" y="-1309.8" font-family="Times,serif" font-size="14.00" fill="#000000">2.3. Loop through all nodes</text>
</g>
<!-- H&#45;&gt;I -->
<g id="edge8" class="edge">
<title>H-&gt;I</title>
<path fill="none" stroke="#000000" d="M158.0639,-1367.8314C158.0639,-1360.131 158.0639,-1350.9743 158.0639,-1342.4166"/>
<polygon fill="#000000" stroke="#000000" points="161.564,-1342.4132 158.0639,-1332.4133 154.564,-1342.4133 161.564,-1342.4132"/>
</g>
<!-- J -->
<g id="node10" class="node">
<title>J</title>
<polygon fill="#add8e6" stroke="#add8e6" points="295.1358,-1260 20.992,-1260 20.992,-1224 295.1358,-1224 295.1358,-1260"/>
<text text-anchor="middle" x="158.0639" y="-1237.8" font-family="Times,serif" font-size="14.00" fill="#000000">2.3.1. Loop through all neighbors and weights</text>
</g>
<!-- I&#45;&gt;J -->
<g id="edge9" class="edge">
<title>I-&gt;J</title>
<path fill="none" stroke="#000000" d="M158.0639,-1295.8314C158.0639,-1288.131 158.0639,-1278.9743 158.0639,-1270.4166"/>
<polygon fill="#000000" stroke="#000000" points="161.564,-1270.4132 158.0639,-1260.4133 154.564,-1270.4133 161.564,-1270.4132"/>
</g>
<!-- K -->
<g id="node11" class="node">
<title>K</title>
<polygon fill="#add8e6" stroke="#add8e6" points="274.2127,-1188 41.9151,-1188 41.9151,-1152 274.2127,-1152 274.2127,-1188"/>
<text text-anchor="middle" x="158.0639" y="-1165.8" font-family="Times,serif" font-size="14.00" fill="#000000">2.3.2. Check for negative weight cycle</text>
</g>
<!-- J&#45;&gt;K -->
<g id="edge10" class="edge">
<title>J-&gt;K</title>
<path fill="none" stroke="#000000" d="M158.0639,-1223.8314C158.0639,-1216.131 158.0639,-1206.9743 158.0639,-1198.4166"/>
<polygon fill="#000000" stroke="#000000" points="161.564,-1198.4132 158.0639,-1188.4133 154.564,-1198.4133 161.564,-1198.4132"/>
</g>
<!-- L -->
<g id="node12" class="node">
<title>L</title>
<polygon fill="#add8e6" stroke="#add8e6" points="257.3735,-1116 58.7543,-1116 58.7543,-1080 257.3735,-1080 257.3735,-1116"/>
<text text-anchor="middle" x="158.0639" y="-1093.8" font-family="Times,serif" font-size="14.00" fill="#000000">3. Define dijkstra(graph, source)</text>
</g>
<!-- K&#45;&gt;L -->
<g id="edge11" class="edge">
<title>K-&gt;L</title>
<path fill="none" stroke="#000000" d="M158.0639,-1151.8314C158.0639,-1144.131 158.0639,-1134.9743 158.0639,-1126.4166"/>
<polygon fill="#000000" stroke="#000000" points="161.564,-1126.4132 158.0639,-1116.4133 154.564,-1126.4133 161.564,-1126.4132"/>
</g>
<!-- M -->
<g id="node13" class="node">
<title>M</title>
<polygon fill="#add8e6" stroke="#add8e6" points="227.6914,-1044 88.4364,-1044 88.4364,-1008 227.6914,-1008 227.6914,-1044"/>
<text text-anchor="middle" x="158.0639" y="-1021.8" font-family="Times,serif" font-size="14.00" fill="#000000">3.1. Initialize distance</text>
</g>
<!-- L&#45;&gt;M -->
<g id="edge12" class="edge">
<title>L-&gt;M</title>
<path fill="none" stroke="#000000" d="M158.0639,-1079.8314C158.0639,-1072.131 158.0639,-1062.9743 158.0639,-1054.4166"/>
<polygon fill="#000000" stroke="#000000" points="161.564,-1054.4132 158.0639,-1044.4133 154.564,-1054.4133 161.564,-1054.4132"/>
</g>
<!-- N -->
<g id="node14" class="node">
<title>N</title>
<polygon fill="#add8e6" stroke="#add8e6" points="246.2436,-972 69.8842,-972 69.8842,-936 246.2436,-936 246.2436,-972"/>
<text text-anchor="middle" x="158.0639" y="-949.8" font-family="Times,serif" font-size="14.00" fill="#000000">3.2. Initialize priority_queue</text>
</g>
<!-- M&#45;&gt;N -->
<g id="edge13" class="edge">
<title>M-&gt;N</title>
<path fill="none" stroke="#000000" d="M158.0639,-1007.8314C158.0639,-1000.131 158.0639,-990.9743 158.0639,-982.4166"/>
<polygon fill="#000000" stroke="#000000" points="161.564,-982.4132 158.0639,-972.4133 154.564,-982.4133 161.564,-982.4132"/>
</g>
<!-- O -->
<g id="node15" class="node">
<title>O</title>
<polygon fill="#add8e6" stroke="#add8e6" points="274.9184,-900 41.2094,-900 41.2094,-864 274.9184,-864 274.9184,-900"/>
<text text-anchor="middle" x="158.0639" y="-877.8" font-family="Times,serif" font-size="14.00" fill="#000000">3.3. While priority_queue is not empty</text>
</g>
<!-- N&#45;&gt;O -->
<g id="edge14" class="edge">
<title>N-&gt;O</title>
<path fill="none" stroke="#000000" d="M158.0639,-935.8314C158.0639,-928.131 158.0639,-918.9743 158.0639,-910.4166"/>
<polygon fill="#000000" stroke="#000000" points="161.564,-910.4132 158.0639,-900.4133 154.564,-910.4133 161.564,-910.4132"/>
</g>
<!-- P -->
<g id="node16" class="node">
<title>P</title>
<polygon fill="#add8e6" stroke="#add8e6" points="276.701,-828 39.4268,-828 39.4268,-792 276.701,-792 276.701,-828"/>
<text text-anchor="middle" x="158.0639" y="-805.8" font-family="Times,serif" font-size="14.00" fill="#000000">3.3.1. Get node with minimum distance</text>
</g>
<!-- O&#45;&gt;P -->
<g id="edge15" class="edge">
<title>O-&gt;P</title>
<path fill="none" stroke="#000000" d="M158.0639,-863.8314C158.0639,-856.131 158.0639,-846.9743 158.0639,-838.4166"/>
<polygon fill="#000000" stroke="#000000" points="161.564,-838.4132 158.0639,-828.4133 154.564,-838.4133 161.564,-838.4132"/>
</g>
<!-- Q -->
<g id="node17" class="node">
<title>Q</title>
<polygon fill="#add8e6" stroke="#add8e6" points="295.1358,-756 20.992,-756 20.992,-720 295.1358,-720 295.1358,-756"/>
<text text-anchor="middle" x="158.0639" y="-733.8" font-family="Times,serif" font-size="14.00" fill="#000000">3.3.2. Loop through all neighbors and weights</text>
</g>
<!-- P&#45;&gt;Q -->
<g id="edge16" class="edge">
<title>P-&gt;Q</title>
<path fill="none" stroke="#000000" d="M158.0639,-791.8314C158.0639,-784.131 158.0639,-774.9743 158.0639,-766.4166"/>
<polygon fill="#000000" stroke="#000000" points="161.564,-766.4132 158.0639,-756.4133 154.564,-766.4133 161.564,-766.4132"/>
</g>
<!-- R -->
<g id="node18" class="node">
<title>R</title>
<polygon fill="#add8e6" stroke="#add8e6" points="255.1215,-684 61.0063,-684 61.0063,-648 255.1215,-648 255.1215,-684"/>
<text text-anchor="middle" x="158.0639" y="-661.8" font-family="Times,serif" font-size="14.00" fill="#000000">3.3.2.1. Calculate new_distance</text>
</g>
<!-- Q&#45;&gt;R -->
<g id="edge17" class="edge">
<title>Q-&gt;R</title>
<path fill="none" stroke="#000000" d="M158.0639,-719.8314C158.0639,-712.131 158.0639,-702.9743 158.0639,-694.4166"/>
<polygon fill="#000000" stroke="#000000" points="161.564,-694.4132 158.0639,-684.4133 154.564,-694.4133 161.564,-694.4132"/>
</g>
<!-- S -->
<g id="node19" class="node">
<title>S</title>
<polygon fill="#add8e6" stroke="#add8e6" points="316.1917,-612 -.0639,-612 -.0639,-576 316.1917,-576 316.1917,-612"/>
<text text-anchor="middle" x="158.0639" y="-589.8" font-family="Times,serif" font-size="14.00" fill="#000000">3.3.2.2. Update distance and priority_queue if needed</text>
</g>
<!-- R&#45;&gt;S -->
<g id="edge18" class="edge">
<title>R-&gt;S</title>
<path fill="none" stroke="#000000" d="M158.0639,-647.8314C158.0639,-640.131 158.0639,-630.9743 158.0639,-622.4166"/>
<polygon fill="#000000" stroke="#000000" points="161.564,-622.4132 158.0639,-612.4133 154.564,-622.4133 161.564,-622.4132"/>
</g>
<!-- T -->
<g id="node20" class="node">
<title>T</title>
<polygon fill="#add8e6" stroke="#add8e6" points="236.6825,-540 79.4453,-540 79.4453,-504 236.6825,-504 236.6825,-540"/>
<text text-anchor="middle" x="158.0639" y="-517.8" font-family="Times,serif" font-size="14.00" fill="#000000">4. Define johnson(graph)</text>
</g>
<!-- S&#45;&gt;T -->
<g id="edge19" class="edge">
<title>S-&gt;T</title>
<path fill="none" stroke="#000000" d="M158.0639,-575.8314C158.0639,-568.131 158.0639,-558.9743 158.0639,-550.4166"/>
<polygon fill="#000000" stroke="#000000" points="161.564,-550.4132 158.0639,-540.4133 154.564,-550.4133 161.564,-550.4132"/>
</g>
<!-- U -->
<g id="node21" class="node">
<title>U</title>
<polygon fill="#add8e6" stroke="#add8e6" points="245.9726,-468 70.1552,-468 70.1552,-432 245.9726,-432 245.9726,-468"/>
<text text-anchor="middle" x="158.0639" y="-445.8" font-family="Times,serif" font-size="14.00" fill="#000000">4.1. Add new_node to graph</text>
</g>
<!-- T&#45;&gt;U -->
<g id="edge20" class="edge">
<title>T-&gt;U</title>
<path fill="none" stroke="#000000" d="M158.0639,-503.8314C158.0639,-496.131 158.0639,-486.9743 158.0639,-478.4166"/>
<polygon fill="#000000" stroke="#000000" points="161.564,-478.4132 158.0639,-468.4133 154.564,-478.4133 161.564,-478.4132"/>
</g>
<!-- V -->
<g id="node22" class="node">
<title>V</title>
<polygon fill="#add8e6" stroke="#add8e6" points="274.2464,-396 41.8814,-396 41.8814,-360 274.2464,-360 274.2464,-396"/>
<text text-anchor="middle" x="158.0639" y="-373.8" font-family="Times,serif" font-size="14.00" fill="#000000">4.2. Run bellman_ford with new_node</text>
</g>
<!-- U&#45;&gt;V -->
<g id="edge21" class="edge">
<title>U-&gt;V</title>
<path fill="none" stroke="#000000" d="M158.0639,-431.8314C158.0639,-424.131 158.0639,-414.9743 158.0639,-406.4166"/>
<polygon fill="#000000" stroke="#000000" points="161.564,-406.4132 158.0639,-396.4133 154.564,-406.4133 161.564,-406.4132"/>
</g>
<!-- W -->
<g id="node23" class="node">
<title>W</title>
<polygon fill="#add8e6" stroke="#add8e6" points="265.3433,-324 50.7845,-324 50.7845,-288 265.3433,-288 265.3433,-324"/>
<text text-anchor="middle" x="158.0639" y="-301.8" font-family="Times,serif" font-size="14.00" fill="#000000">4.3. Remove new_node from graph</text>
</g>
<!-- V&#45;&gt;W -->
<g id="edge22" class="edge">
<title>V-&gt;W</title>
<path fill="none" stroke="#000000" d="M158.0639,-359.8314C158.0639,-352.131 158.0639,-342.9743 158.0639,-334.4166"/>
<polygon fill="#000000" stroke="#000000" points="161.564,-334.4132 158.0639,-324.4133 154.564,-334.4133 161.564,-334.4132"/>
</g>
<!-- X -->
<g id="node24" class="node">
<title>X</title>
<polygon fill="#add8e6" stroke="#add8e6" points="241.1257,-252 75.0021,-252 75.0021,-216 241.1257,-216 241.1257,-252"/>
<text text-anchor="middle" x="158.0639" y="-229.8" font-family="Times,serif" font-size="14.00" fill="#000000">4.4. Create adjusted_graph</text>
</g>
<!-- W&#45;&gt;X -->
<g id="edge23" class="edge">
<title>W-&gt;X</title>
<path fill="none" stroke="#000000" d="M158.0639,-287.8314C158.0639,-280.131 158.0639,-270.9743 158.0639,-262.4166"/>
<polygon fill="#000000" stroke="#000000" points="161.564,-262.4132 158.0639,-252.4133 154.564,-262.4133 161.564,-262.4132"/>
</g>
<!-- Y -->
<g id="node25" class="node">
<title>Y</title>
<polygon fill="#add8e6" stroke="#add8e6" points="243.3229,-180 72.8049,-180 72.8049,-144 243.3229,-144 243.3229,-180"/>
<text text-anchor="middle" x="158.0639" y="-157.8" font-family="Times,serif" font-size="14.00" fill="#000000">4.5. Loop through all nodes</text>
</g>
<!-- X&#45;&gt;Y -->
<g id="edge24" class="edge">
<title>X-&gt;Y</title>
<path fill="none" stroke="#000000" d="M158.0639,-215.8314C158.0639,-208.131 158.0639,-198.9743 158.0639,-190.4166"/>
<polygon fill="#000000" stroke="#000000" points="161.564,-190.4132 158.0639,-180.4133 154.564,-190.4133 161.564,-190.4132"/>
</g>
<!-- Z -->
<g id="node26" class="node">
<title>Z</title>
<polygon fill="#add8e6" stroke="#add8e6" points="257.5723,-108 58.5555,-108 58.5555,-72 257.5723,-72 257.5723,-108"/>
<text text-anchor="middle" x="158.0639" y="-85.8" font-family="Times,serif" font-size="14.00" fill="#000000">4.5.1. Run dijkstra for each node</text>
</g>
<!-- Y&#45;&gt;Z -->
<g id="edge25" class="edge">
<title>Y-&gt;Z</title>
<path fill="none" stroke="#000000" d="M158.0639,-143.8314C158.0639,-136.131 158.0639,-126.9743 158.0639,-118.4166"/>
<polygon fill="#000000" stroke="#000000" points="161.564,-118.4132 158.0639,-108.4133 154.564,-118.4133 161.564,-118.4132"/>
</g>
<!-- AA -->
<g id="node27" class="node">
<title>AA</title>
<polygon fill="#add8e6" stroke="#add8e6" points="279.8874,-36 36.2404,-36 36.2404,0 279.8874,0 279.8874,-36"/>
<text text-anchor="middle" x="158.0639" y="-13.8" font-family="Times,serif" font-size="14.00" fill="#000000">4.5.2. Store shortest_paths for each node</text>
</g>
<!-- Z&#45;&gt;AA -->
<g id="edge26" class="edge">
<title>Z-&gt;AA</title>
<path fill="none" stroke="#000000" d="M158.0639,-71.8314C158.0639,-64.131 158.0639,-54.9743 158.0639,-46.4166"/>
<polygon fill="#000000" stroke="#000000" points="161.564,-46.4132 158.0639,-36.4133 154.564,-46.4133 161.564,-46.4132"/>
</g>
</g>
</svg>