<?xml version="1.0" encoding="UTF-8" standalone="no"?><!DOCTYPE svg PUBLIC "-//W3C//DTD SVG 1.1//EN" "http://www.w3.org/Graphics/SVG/1.1/DTD/svg11.dtd"><!-- Generated by graphviz version 2.40.1 (20161225.0304)
 --><!-- Title: G Pages: 1 --><svg xmlns="http://www.w3.org/2000/svg" xmlns:xlink="http://www.w3.org/1999/xlink" width="198pt" height="310pt" viewBox="0.00 0.00 198.00 310.40">
<g id="graph0" class="graph" transform="scale(1 1) rotate(0) translate(4 306.4)">
<title>G</title>
<polygon fill="#ffffff" stroke="transparent" points="-4,4 -4,-306.4 194,-306.4 194,4 -4,4"/>
<!-- A -->
<g id="node1" class="node">
<title>A</title>
<ellipse fill="none" stroke="#000000" cx="53" cy="-284.4" rx="27" ry="18"/>
<text text-anchor="middle" x="53" y="-280.2" font-family="Times,serif" font-size="14.00" fill="#000000">A</text>
</g>
<!-- B -->
<g id="node2" class="node">
<title>B</title>
<ellipse fill="none" stroke="#000000" cx="82" cy="-195.6" rx="27" ry="18"/>
<text text-anchor="middle" x="82" y="-191.4" font-family="Times,serif" font-size="14.00" fill="#000000">B</text>
</g>
<!-- A&#45;&gt;B -->
<g id="edge1" class="edge">
<title>A-&gt;B</title>
<path fill="none" stroke="#000000" d="M58.8686,-266.43C62.9439,-253.9511 68.4494,-237.0928 73.0669,-222.9536"/>
<polygon fill="#000000" stroke="#000000" points="76.4617,-223.8327 76.2391,-213.2402 69.8076,-221.6596 76.4617,-223.8327"/>
<text text-anchor="middle" x="73.5" y="-235.8" font-family="Times,serif" font-size="14.00" fill="#000000">3</text>
</g>
<!-- C -->
<g id="node3" class="node">
<title>C</title>
<ellipse fill="none" stroke="#000000" cx="27" cy="-18" rx="27" ry="18"/>
<text text-anchor="middle" x="27" y="-13.8" font-family="Times,serif" font-size="14.00" fill="#000000">C</text>
</g>
<!-- A&#45;&gt;C -->
<g id="edge2" class="edge">
<title>A-&gt;C</title>
<path fill="none" stroke="#000000" d="M40.4427,-268.4117C36.4151,-262.4525 32.3841,-255.423 30,-248.4 6.3597,-178.7602 15.126,-90.3211 21.946,-45.9977"/>
<polygon fill="#000000" stroke="#000000" points="25.4264,-46.4006 23.5741,-35.969 18.5168,-45.2789 25.4264,-46.4006"/>
<text text-anchor="middle" x="18.5" y="-147" font-family="Times,serif" font-size="14.00" fill="#000000">8</text>
</g>
<!-- D -->
<g id="node4" class="node">
<title>D</title>
<ellipse fill="none" stroke="#000000" cx="79" cy="-106.8" rx="27" ry="18"/>
<text text-anchor="middle" x="79" y="-102.6" font-family="Times,serif" font-size="14.00" fill="#000000">D</text>
</g>
<!-- A&#45;&gt;D -->
<g id="edge3" class="edge">
<title>A-&gt;D</title>
<path fill="none" stroke="#000000" d="M45.2385,-267.1229C36.7303,-245.7856 25.4018,-208.5208 34.3394,-177.6 39.3049,-160.4211 49.8149,-143.3996 59.3922,-130.3531"/>
<polygon fill="#000000" stroke="#000000" points="62.1865,-132.4608 65.4835,-122.392 56.6271,-128.2071 62.1865,-132.4608"/>
<text text-anchor="middle" x="39.8303" y="-191.4" font-family="Times,serif" font-size="14.00" fill="#000000">-4</text>
</g>
<!-- B&#45;&gt;D -->
<g id="edge5" class="edge">
<title>B-&gt;D</title>
<path fill="none" stroke="#000000" d="M81.3784,-177.2006C80.9694,-165.0949 80.4259,-149.0076 79.9617,-135.2674"/>
<polygon fill="#000000" stroke="#000000" points="83.4463,-134.7481 79.6105,-124.872 76.4503,-134.9845 83.4463,-134.7481"/>
<text text-anchor="middle" x="83.5" y="-147" font-family="Times,serif" font-size="14.00" fill="#000000">7</text>
</g>
<!-- E -->
<g id="node5" class="node">
<title>E</title>
<ellipse fill="none" stroke="#000000" cx="163" cy="-18" rx="27" ry="18"/>
<text text-anchor="middle" x="163" y="-13.8" font-family="Times,serif" font-size="14.00" fill="#000000">E</text>
</g>
<!-- B&#45;&gt;E -->
<g id="edge4" class="edge">
<title>B-&gt;E</title>
<path fill="none" stroke="#000000" d="M90.204,-178.1735C96.9221,-163.8615 106.6463,-143.0496 115,-124.8 127.4731,-97.5508 141.4984,-66.2681 151.1518,-44.6339"/>
<polygon fill="#000000" stroke="#000000" points="154.3835,-45.9806 155.2583,-35.422 147.9899,-43.1306 154.3835,-45.9806"/>
<text text-anchor="middle" x="134.5" y="-102.6" font-family="Times,serif" font-size="14.00" fill="#000000">1</text>
</g>
<!-- C&#45;&gt;B -->
<g id="edge6" class="edge">
<title>C-&gt;B</title>
<path fill="none" stroke="#000000" d="M25.8799,-36.3132C25.1492,-58.0362 25.8063,-95.0516 36,-124.8 41.8467,-141.8625 52.7002,-158.8794 62.3966,-171.9527"/>
<polygon fill="#000000" stroke="#000000" points="59.6657,-174.143 68.5372,-179.9351 65.214,-169.8749 59.6657,-174.143"/>
<text text-anchor="middle" x="39.5" y="-102.6" font-family="Times,serif" font-size="14.00" fill="#000000">4</text>
</g>
<!-- D&#45;&gt;C -->
<g id="edge7" class="edge">
<title>D-&gt;C</title>
<path fill="none" stroke="#000000" d="M68.9739,-89.6785C61.2996,-76.5732 50.5939,-58.2911 41.9154,-43.4709"/>
<polygon fill="#000000" stroke="#000000" points="44.8925,-41.6285 36.819,-34.7678 38.852,-45.1658 44.8925,-41.6285"/>
<text text-anchor="middle" x="60.5" y="-58.2" font-family="Times,serif" font-size="14.00" fill="#000000">6</text>
</g>
<!-- D&#45;&gt;E -->
<g id="edge8" class="edge">
<title>D-&gt;E</title>
<path fill="none" stroke="#000000" d="M90.7461,-90.4317C98.7818,-79.6534 109.9443,-65.4686 121,-54 126.0156,-48.7971 131.7115,-43.5424 137.2544,-38.7159"/>
<polygon fill="#000000" stroke="#000000" points="139.8041,-41.1429 145.169,-32.0068 135.2777,-35.8033 139.8041,-41.1429"/>
<text text-anchor="middle" x="124.5" y="-58.2" font-family="Times,serif" font-size="14.00" fill="#000000">6</text>
</g>
<!-- E&#45;&gt;A -->
<g id="edge9" class="edge">
<title>E-&gt;A</title>
<path fill="none" stroke="#000000" d="M168.956,-35.7451C170.6095,-41.4999 172.1765,-47.9584 173,-54 177.2537,-85.2063 179.0853,-94.644 170,-124.8 152.8964,-181.5708 105.6817,-234.3306 76.7265,-262.6874"/>
<polygon fill="#000000" stroke="#000000" points="74.2233,-260.2387 69.436,-269.6903 79.0725,-265.2871 74.2233,-260.2387"/>
<text text-anchor="middle" x="166.5" y="-147" font-family="Times,serif" font-size="14.00" fill="#000000">2</text>
</g>
<!-- E&#45;&gt;B -->
<g id="edge10" class="edge">
<title>E-&gt;B</title>
<path fill="none" stroke="#000000" d="M162.2749,-36.2971C160.771,-58.3281 156.1551,-95.9623 142,-124.8 132.9793,-143.1776 118.1322,-160.7539 105.4646,-173.7969"/>
<polygon fill="#000000" stroke="#000000" points="102.9271,-171.3844 98.3185,-180.9244 107.8705,-176.3406 102.9271,-171.3844"/>
<text text-anchor="middle" x="159.8303" y="-102.6" font-family="Times,serif" font-size="14.00" fill="#000000">-3</text>
</g>
</g>
</svg>