<?xml version="1.0" encoding="UTF-8" standalone="no"?><!DOCTYPE svg PUBLIC "-//W3C//DTD SVG 1.1//EN" "http://www.w3.org/Graphics/SVG/1.1/DTD/svg11.dtd"><!-- Generated by graphviz version 2.40.1 (20161225.0304)
 --><!-- Title: Kruskal Pages: 1 --><svg xmlns="http://www.w3.org/2000/svg" xmlns:xlink="http://www.w3.org/1999/xlink" width="469pt" height="441pt" viewBox="0.00 0.00 469.32 440.60">
<g id="graph0" class="graph" transform="scale(1 1) rotate(0) translate(4 436.6)">
<title>Kruskal</title>
<polygon fill="#ffffff" stroke="transparent" points="-4,4 -4,-436.6 465.3172,-436.6 465.3172,4 -4,4"/>
<!-- a -->
<g id="node1" class="node">
<title>a</title>
<ellipse fill="none" stroke="#000000" cx="230.6586" cy="-414.6" rx="29.049" ry="18"/>
<text text-anchor="middle" x="230.6586" y="-410.4" font-family="Times,serif" font-size="14.00" fill="#000000">Start</text>
</g>
<!-- b -->
<g id="node2" class="node">
<title>b</title>
<ellipse fill="none" stroke="#000000" cx="230.6586" cy="-341.6" rx="104.2361" ry="18"/>
<text text-anchor="middle" x="230.6586" y="-337.4" font-family="Times,serif" font-size="14.00" fill="#000000">Sort all edges by weight</text>
</g>
<!-- a&#45;&gt;b -->
<g id="edge1" class="edge">
<title>a-&gt;b</title>
<path fill="none" stroke="#000000" d="M230.6586,-396.5551C230.6586,-388.4828 230.6586,-378.7764 230.6586,-369.7817"/>
<polygon fill="#000000" stroke="#000000" points="234.1587,-369.6903 230.6586,-359.6904 227.1587,-369.6904 234.1587,-369.6903"/>
</g>
<!-- c -->
<g id="node3" class="node">
<title>c</title>
<ellipse fill="none" stroke="#000000" cx="230.6586" cy="-268.6" rx="94.3563" ry="18"/>
<text text-anchor="middle" x="230.6586" y="-264.4" font-family="Times,serif" font-size="14.00" fill="#000000">Initialize empty MST</text>
</g>
<!-- b&#45;&gt;c -->
<g id="edge2" class="edge">
<title>b-&gt;c</title>
<path fill="none" stroke="#000000" d="M230.6586,-323.5551C230.6586,-315.4828 230.6586,-305.7764 230.6586,-296.7817"/>
<polygon fill="#000000" stroke="#000000" points="234.1587,-296.6903 230.6586,-286.6904 227.1587,-296.6904 234.1587,-296.6903"/>
</g>
<!-- d -->
<g id="node4" class="node">
<title>d</title>
<ellipse fill="none" stroke="#000000" cx="230.6586" cy="-195.6" rx="230.8173" ry="18"/>
<text text-anchor="middle" x="230.6586" y="-191.4" font-family="Times,serif" font-size="14.00" fill="#000000">Add the smallest edge to MST if it doesn't create a cycle</text>
</g>
<!-- c&#45;&gt;d -->
<g id="edge3" class="edge">
<title>c-&gt;d</title>
<path fill="none" stroke="#000000" d="M230.6586,-250.5551C230.6586,-242.4828 230.6586,-232.7764 230.6586,-223.7817"/>
<polygon fill="#000000" stroke="#000000" points="234.1587,-223.6903 230.6586,-213.6904 227.1587,-223.6904 234.1587,-223.6903"/>
</g>
<!-- e -->
<g id="node5" class="node">
<title>e</title>
<polygon fill="none" stroke="#000000" points="230.6586,-124.8 100.1257,-106.8 230.6586,-88.8 361.1915,-106.8 230.6586,-124.8"/>
<text text-anchor="middle" x="230.6586" y="-102.6" font-family="Times,serif" font-size="14.00" fill="#000000">MST has V-1 edges?</text>
</g>
<!-- d&#45;&gt;e -->
<g id="edge4" class="edge">
<title>d-&gt;e</title>
<path fill="none" stroke="#000000" d="M230.6586,-177.2006C230.6586,-165.0949 230.6586,-149.0076 230.6586,-135.2674"/>
<polygon fill="#000000" stroke="#000000" points="234.1587,-134.872 230.6586,-124.872 227.1587,-134.8721 234.1587,-134.872"/>
</g>
<!-- e&#45;&gt;d -->
<g id="edge6" class="edge">
<title>e-&gt;d</title>
<path fill="none" stroke="#000000" d="M237.092,-124.1379C238.9532,-129.9812 240.7318,-136.595 241.6586,-142.8 242.7617,-150.1847 242.7617,-152.2153 241.6586,-159.6 241.2561,-162.2945 240.693,-165.0661 240.0323,-167.8181"/>
<polygon fill="#000000" stroke="#000000" points="236.6395,-166.9551 237.3242,-177.5278 243.3822,-168.8358 236.6395,-166.9551"/>
<text text-anchor="middle" x="250.2119" y="-147" font-family="Times,serif" font-size="14.00" fill="#000000">No</text>
</g>
<!-- f -->
<g id="node6" class="node">
<title>f</title>
<ellipse fill="none" stroke="#000000" cx="230.6586" cy="-18" rx="27" ry="18"/>
<text text-anchor="middle" x="230.6586" y="-13.8" font-family="Times,serif" font-size="14.00" fill="#000000">End</text>
</g>
<!-- e&#45;&gt;f -->
<g id="edge5" class="edge">
<title>e-&gt;f</title>
<path fill="none" stroke="#000000" d="M230.6586,-88.4006C230.6586,-76.2949 230.6586,-60.2076 230.6586,-46.4674"/>
<polygon fill="#000000" stroke="#000000" points="234.1587,-46.072 230.6586,-36.072 227.1587,-46.0721 234.1587,-46.072"/>
<text text-anchor="middle" x="241.5415" y="-58.2" font-family="Times,serif" font-size="14.00" fill="#000000">Yes</text>
</g>
</g>
</svg>