<?xml version="1.0" encoding="UTF-8" standalone="no"?><!DOCTYPE svg PUBLIC "-//W3C//DTD SVG 1.1//EN" "http://www.w3.org/Graphics/SVG/1.1/DTD/svg11.dtd"><!-- Generated by graphviz version 2.40.1 (20161225.0304)
 --><!-- Title: grraph Pages: 1 --><svg xmlns="http://www.w3.org/2000/svg" xmlns:xlink="http://www.w3.org/1999/xlink" width="118pt" height="488pt" viewBox="0.00 0.00 118.01 488.05">
<g id="graph0" class="graph" transform="scale(1 1) rotate(0) translate(4 484.0471)">
<title>grraph</title>
<polygon fill="#ffffff" stroke="transparent" points="-4,4 -4,-484.0471 114.0079,-484.0471 114.0079,4 -4,4"/>
<!-- A -->
<g id="node1" class="node">
<title>A</title>
<ellipse fill="#add8e6" stroke="#000000" cx="30.0079" cy="-462.0393" rx="18.0157" ry="18.0157"/>
<text text-anchor="middle" x="30.0079" y="-457.8393" font-family="Times,serif" font-size="14.00" fill="#000000">A</text>
</g>
<!-- B -->
<g id="node2" class="node">
<title>B</title>
<ellipse fill="#add8e6" stroke="#000000" cx="67.0079" cy="-373.2314" rx="18" ry="18"/>
<text text-anchor="middle" x="67.0079" y="-369.0314" font-family="Times,serif" font-size="14.00" fill="#000000">B</text>
</g>
<!-- A&#45;&gt;B -->
<g id="edge1" class="edge">
<title>A-&gt;B</title>
<path fill="none" stroke="#000000" d="M36.9673,-445.3352C42.342,-432.4348 49.8804,-414.3409 56.061,-399.5062"/>
<polygon fill="#000000" stroke="#000000" points="59.4645,-400.4376 60.0796,-389.8606 53.0029,-397.7454 59.4645,-400.4376"/>
<text text-anchor="middle" x="54.5079" y="-413.4314" font-family="Times,serif" font-size="14.00" fill="#000000">7</text>
</g>
<!-- D -->
<g id="node4" class="node">
<title>D</title>
<ellipse fill="#add8e6" stroke="#000000" cx="18.0079" cy="-284.4236" rx="18.0157" ry="18.0157"/>
<text text-anchor="middle" x="18.0079" y="-280.2236" font-family="Times,serif" font-size="14.00" fill="#000000">D</text>
</g>
<!-- A&#45;&gt;D -->
<g id="edge2" class="edge">
<title>A-&gt;D</title>
<path fill="none" stroke="#000000" d="M28.7912,-444.0311C26.6979,-413.0469 22.4002,-349.4353 19.9088,-312.5607"/>
<polygon fill="#000000" stroke="#000000" points="23.3939,-312.2207 19.2277,-302.4794 16.4099,-312.6926 23.3939,-312.2207"/>
<text text-anchor="middle" x="29.5079" y="-369.0314" font-family="Times,serif" font-size="14.00" fill="#000000">5</text>
</g>
<!-- C -->
<g id="node3" class="node">
<title>C</title>
<ellipse fill="#add8e6" stroke="#000000" cx="74.0079" cy="-284.4236" rx="18" ry="18"/>
<text text-anchor="middle" x="74.0079" y="-280.2236" font-family="Times,serif" font-size="14.00" fill="#000000">C</text>
</g>
<!-- B&#45;&gt;C -->
<g id="edge3" class="edge">
<title>B-&gt;C</title>
<path fill="none" stroke="#000000" d="M68.4244,-355.2598C69.3922,-342.9818 70.6941,-326.4645 71.7973,-312.4682"/>
<polygon fill="#000000" stroke="#000000" points="75.2967,-312.6126 72.5934,-302.3684 68.3184,-312.0625 75.2967,-312.6126"/>
<text text-anchor="middle" x="74.5079" y="-324.6314" font-family="Times,serif" font-size="14.00" fill="#000000">8</text>
</g>
<!-- B&#45;&gt;D -->
<g id="edge4" class="edge">
<title>B-&gt;D</title>
<path fill="none" stroke="#000000" d="M58.2476,-357.3544C50.9072,-344.0506 40.2979,-324.8221 31.8157,-309.449"/>
<polygon fill="#000000" stroke="#000000" points="34.7529,-307.5274 26.8574,-300.4626 28.624,-310.9091 34.7529,-307.5274"/>
<text text-anchor="middle" x="49.5079" y="-324.6314" font-family="Times,serif" font-size="14.00" fill="#000000">9</text>
</g>
<!-- E -->
<g id="node5" class="node">
<title>E</title>
<ellipse fill="#add8e6" stroke="#000000" cx="76.0079" cy="-195.6157" rx="18" ry="18"/>
<text text-anchor="middle" x="76.0079" y="-191.4157" font-family="Times,serif" font-size="14.00" fill="#000000">E</text>
</g>
<!-- B&#45;&gt;E -->
<g id="edge5" class="edge">
<title>B-&gt;E</title>
<path fill="none" stroke="#000000" d="M76.8416,-357.9495C85.1366,-344.0895 96.3767,-322.7733 101.0079,-302.4314 107.3506,-274.5716 97.6736,-242.6813 88.5745,-221.0525"/>
<polygon fill="#000000" stroke="#000000" points="91.7592,-219.6001 84.4942,-211.8883 85.3644,-222.4474 91.7592,-219.6001"/>
<text text-anchor="middle" x="106.5079" y="-280.2236" font-family="Times,serif" font-size="14.00" fill="#000000">7</text>
</g>
<!-- C&#45;&gt;E -->
<g id="edge6" class="edge">
<title>C-&gt;E</title>
<path fill="none" stroke="#000000" d="M74.4223,-266.0225C74.6949,-253.9158 75.0572,-237.8271 75.3667,-224.0856"/>
<polygon fill="#000000" stroke="#000000" points="78.8747,-223.7656 75.6008,-213.6893 71.8765,-223.608 78.8747,-223.7656"/>
<text text-anchor="middle" x="78.5079" y="-235.8157" font-family="Times,serif" font-size="14.00" fill="#000000">5</text>
</g>
<!-- D&#45;&gt;E -->
<g id="edge7" class="edge">
<title>D-&gt;E</title>
<path fill="none" stroke="#000000" d="M28.1107,-268.9544C37.0097,-255.3286 50.1136,-235.2642 60.3667,-219.565"/>
<polygon fill="#000000" stroke="#000000" points="63.4831,-221.194 66.0208,-210.9076 57.6223,-217.3663 63.4831,-221.194"/>
<text text-anchor="middle" x="59.0079" y="-235.8157" font-family="Times,serif" font-size="14.00" fill="#000000">15</text>
</g>
<!-- F -->
<g id="node6" class="node">
<title>F</title>
<ellipse fill="#add8e6" stroke="#000000" cx="22.0079" cy="-106.8157" rx="18" ry="18"/>
<text text-anchor="middle" x="22.0079" y="-102.6157" font-family="Times,serif" font-size="14.00" fill="#000000">F</text>
</g>
<!-- D&#45;&gt;F -->
<g id="edge8" class="edge">
<title>D-&gt;F</title>
<path fill="none" stroke="#000000" d="M18.4134,-266.4162C19.1112,-235.4334 20.5438,-171.8246 21.3742,-134.9516"/>
<polygon fill="#000000" stroke="#000000" points="24.8751,-134.9471 21.6012,-124.8708 17.8769,-134.7894 24.8751,-134.9471"/>
<text text-anchor="middle" x="24.5079" y="-191.4157" font-family="Times,serif" font-size="14.00" fill="#000000">6</text>
</g>
<!-- E&#45;&gt;F -->
<g id="edge9" class="edge">
<title>E-&gt;F</title>
<path fill="none" stroke="#000000" d="M66.6018,-180.1479C58.367,-166.6064 46.2649,-146.7051 36.7452,-131.0505"/>
<polygon fill="#000000" stroke="#000000" points="39.6737,-129.1299 31.4873,-122.4042 33.6927,-132.767 39.6737,-129.1299"/>
<text text-anchor="middle" x="56.5079" y="-147.0157" font-family="Times,serif" font-size="14.00" fill="#000000">8</text>
</g>
<!-- G -->
<g id="node7" class="node">
<title>G</title>
<ellipse fill="#add8e6" stroke="#000000" cx="49.0079" cy="-18.0079" rx="18.0157" ry="18.0157"/>
<text text-anchor="middle" x="49.0079" y="-13.8079" font-family="Times,serif" font-size="14.00" fill="#000000">G</text>
</g>
<!-- E&#45;&gt;G -->
<g id="edge10" class="edge">
<title>E-&gt;G</title>
<path fill="none" stroke="#000000" d="M73.7777,-177.6878C70.3607,-150.7685 63.4404,-98.3343 56.0079,-54.0157 55.5592,-51.3405 55.0661,-48.5588 54.5557,-45.7799"/>
<polygon fill="#000000" stroke="#000000" points="57.9879,-45.0933 52.6801,-35.9239 51.1113,-46.4019 57.9879,-45.0933"/>
<text text-anchor="middle" x="69.5079" y="-102.6157" font-family="Times,serif" font-size="14.00" fill="#000000">9</text>
</g>
<!-- F&#45;&gt;G -->
<g id="edge11" class="edge">
<title>F-&gt;G</title>
<path fill="none" stroke="#000000" d="M27.3422,-89.2701C31.1512,-76.7418 36.3493,-59.6442 40.6991,-45.3367"/>
<polygon fill="#000000" stroke="#000000" points="44.1244,-46.1027 43.6846,-35.517 37.4271,-44.0665 44.1244,-46.1027"/>
<text text-anchor="middle" x="45.0079" y="-58.2157" font-family="Times,serif" font-size="14.00" fill="#000000">11</text>
</g>
</g>
</svg>