<?xml version="1.0" encoding="UTF-8" standalone="no"?><!DOCTYPE svg PUBLIC "-//W3C//DTD SVG 1.1//EN" "http://www.w3.org/Graphics/SVG/1.1/DTD/svg11.dtd"><!-- Generated by graphviz version 2.40.1 (20161225.0304)
 --><!-- Title: prims Pages: 1 --><svg xmlns="http://www.w3.org/2000/svg" xmlns:xlink="http://www.w3.org/1999/xlink" width="613pt" height="577pt" viewBox="0.00 0.00 612.61 577.00">
<g id="graph0" class="graph" transform="scale(1 1) rotate(0) translate(4 573)">
<title>prims</title>
<polygon fill="#ffffff" stroke="transparent" points="-4,4 -4,-573 608.609,-573 608.609,4 -4,4"/>
<!-- start -->
<g id="node1" class="node">
<title>start</title>
<path fill="none" stroke="#000000" d="M403.73,-569C403.73,-569 373.73,-569 373.73,-569 367.73,-569 361.73,-563 361.73,-557 361.73,-557 361.73,-545 361.73,-545 361.73,-539 367.73,-533 373.73,-533 373.73,-533 403.73,-533 403.73,-533 409.73,-533 415.73,-539 415.73,-545 415.73,-545 415.73,-557 415.73,-557 415.73,-563 409.73,-569 403.73,-569"/>
<text text-anchor="middle" x="388.73" y="-548" font-family="Arial" font-size="10.00" fill="#000000">Start</text>
</g>
<!-- init -->
<g id="node2" class="node">
<title>init</title>
<path fill="none" stroke="#000000" d="M467.874,-496C467.874,-496 309.5859,-496 309.5859,-496 303.5859,-496 297.5859,-490 297.5859,-484 297.5859,-484 297.5859,-472 297.5859,-472 297.5859,-466 303.5859,-460 309.5859,-460 309.5859,-460 467.874,-460 467.874,-460 473.874,-460 479.874,-466 479.874,-472 479.874,-472 479.874,-484 479.874,-484 479.874,-490 473.874,-496 467.874,-496"/>
<text text-anchor="middle" x="388.73" y="-475" font-family="Arial" font-size="10.00" fill="#000000">Initialize visited set and priority queue</text>
</g>
<!-- start&#45;&gt;init -->
<g id="edge1" class="edge">
<title>start-&gt;init</title>
<path fill="none" stroke="#000000" d="M388.73,-532.9551C388.73,-524.8828 388.73,-515.1764 388.73,-506.1817"/>
<polygon fill="#000000" stroke="#000000" points="392.2301,-506.0903 388.73,-496.0904 385.2301,-506.0904 392.2301,-506.0903"/>
</g>
<!-- add_arbitrary -->
<g id="node3" class="node">
<title>add_arbitrary</title>
<path fill="none" stroke="#000000" d="M472.884,-423C472.884,-423 304.5759,-423 304.5759,-423 298.5759,-423 292.5759,-417 292.5759,-411 292.5759,-411 292.5759,-399 292.5759,-399 292.5759,-393 298.5759,-387 304.5759,-387 304.5759,-387 472.884,-387 472.884,-387 478.884,-387 484.884,-393 484.884,-399 484.884,-399 484.884,-411 484.884,-411 484.884,-417 478.884,-423 472.884,-423"/>
<text text-anchor="middle" x="388.73" y="-402" font-family="Arial" font-size="10.00" fill="#000000">Add an arbitrary vertex to the visited set</text>
</g>
<!-- init&#45;&gt;add_arbitrary -->
<g id="edge2" class="edge">
<title>init-&gt;add_arbitrary</title>
<path fill="none" stroke="#000000" d="M388.73,-459.9551C388.73,-451.8828 388.73,-442.1764 388.73,-433.1817"/>
<polygon fill="#000000" stroke="#000000" points="392.2301,-433.0903 388.73,-423.0904 385.2301,-433.0904 392.2301,-433.0903"/>
</g>
<!-- add_edges -->
<g id="node4" class="node">
<title>add_edges</title>
<path fill="none" stroke="#000000" d="M504.2414,-350C504.2414,-350 273.2185,-350 273.2185,-350 267.2185,-350 261.2185,-344 261.2185,-338 261.2185,-338 261.2185,-326 261.2185,-326 261.2185,-320 267.2185,-314 273.2185,-314 273.2185,-314 504.2414,-314 504.2414,-314 510.2414,-314 516.2414,-320 516.2414,-326 516.2414,-326 516.2414,-338 516.2414,-338 516.2414,-344 510.2414,-350 504.2414,-350"/>
<text text-anchor="middle" x="388.73" y="-329" font-family="Arial" font-size="10.00" fill="#000000">Add edges from the visited vertex to the priority queue</text>
</g>
<!-- add_arbitrary&#45;&gt;add_edges -->
<g id="edge3" class="edge">
<title>add_arbitrary-&gt;add_edges</title>
<path fill="none" stroke="#000000" d="M388.73,-386.9551C388.73,-378.8828 388.73,-369.1764 388.73,-360.1817"/>
<polygon fill="#000000" stroke="#000000" points="392.2301,-360.0903 388.73,-350.0904 385.2301,-360.0904 392.2301,-360.0903"/>
</g>
<!-- pop_edge -->
<g id="node5" class="node">
<title>pop_edge</title>
<path fill="none" stroke="#000000" d="M404.4481,-277C404.4481,-277 211.0118,-277 211.0118,-277 205.0118,-277 199.0118,-271 199.0118,-265 199.0118,-265 199.0118,-253 199.0118,-253 199.0118,-247 205.0118,-241 211.0118,-241 211.0118,-241 404.4481,-241 404.4481,-241 410.4481,-241 416.4481,-247 416.4481,-253 416.4481,-253 416.4481,-265 416.4481,-265 416.4481,-271 410.4481,-277 404.4481,-277"/>
<text text-anchor="middle" x="307.73" y="-256" font-family="Arial" font-size="10.00" fill="#000000">Pop the smallest edge from the priority queue</text>
</g>
<!-- add_edges&#45;&gt;pop_edge -->
<g id="edge4" class="edge">
<title>add_edges-&gt;pop_edge</title>
<path fill="none" stroke="#000000" d="M368.7075,-313.9551C358.6797,-304.9177 346.3791,-293.8319 335.4585,-283.9899"/>
<polygon fill="#000000" stroke="#000000" points="337.5744,-281.1852 327.8028,-277.0904 332.8881,-286.385 337.5744,-281.1852"/>
</g>
<!-- is_visited -->
<g id="node6" class="node">
<title>is_visited</title>
<path fill="none" stroke="#000000" d="M295.8357,-202.4103C295.8357,-202.4103 184.9458,-187.5897 184.9458,-187.5897 178.9987,-186.7948 178.9987,-185.2052 184.9458,-184.4103 184.9458,-184.4103 295.8357,-169.5897 295.8357,-169.5897 301.7828,-168.7948 313.6771,-168.7948 319.6242,-169.5897 319.6242,-169.5897 430.5141,-184.4103 430.5141,-184.4103 436.4613,-185.2052 436.4613,-186.7948 430.5141,-187.5897 430.5141,-187.5897 319.6242,-202.4103 319.6242,-202.4103 313.6771,-203.2052 301.7828,-203.2052 295.8357,-202.4103"/>
<text text-anchor="middle" x="307.73" y="-183" font-family="Arial" font-size="10.00" fill="#000000">Is the destination vertex visited?</text>
</g>
<!-- pop_edge&#45;&gt;is_visited -->
<g id="edge5" class="edge">
<title>pop_edge-&gt;is_visited</title>
<path fill="none" stroke="#000000" d="M307.73,-240.9551C307.73,-232.8828 307.73,-223.1764 307.73,-214.1817"/>
<polygon fill="#000000" stroke="#000000" points="311.2301,-214.0903 307.73,-204.0904 304.2301,-214.0904 311.2301,-214.0903"/>
</g>
<!-- add_to_mst -->
<g id="node7" class="node">
<title>add_to_mst</title>
<path fill="none" stroke="#000000" d="M592.4881,-120C592.4881,-120 338.9719,-120 338.9719,-120 332.9719,-120 326.9719,-114 326.9719,-108 326.9719,-108 326.9719,-96 326.9719,-96 326.9719,-90 332.9719,-84 338.9719,-84 338.9719,-84 592.4881,-84 592.4881,-84 598.4881,-84 604.4881,-90 604.4881,-96 604.4881,-96 604.4881,-108 604.4881,-108 604.4881,-114 598.4881,-120 592.4881,-120"/>
<text text-anchor="middle" x="465.73" y="-99" font-family="Arial" font-size="10.00" fill="#000000">Add the edge and destination vertex to MST and visited set</text>
</g>
<!-- is_visited&#45;&gt;add_to_mst -->
<g id="edge6" class="edge">
<title>is_visited-&gt;add_to_mst</title>
<path fill="none" stroke="#000000" d="M334.8911,-171.5599C358.9894,-158.7482 394.6096,-139.8108 422.6016,-124.929"/>
<polygon fill="#000000" stroke="#000000" points="424.5877,-127.8371 431.7744,-120.0523 421.3016,-121.6563 424.5877,-127.8371"/>
<text text-anchor="middle" x="402.119" y="-141" font-family="Arial" font-size="10.00" fill="#000000">No</text>
</g>
<!-- complete -->
<g id="node8" class="node">
<title>complete</title>
<path fill="none" stroke="#000000" d="M136.8166,-118.5604C136.8166,-118.5604 11.683,-103.4396 11.683,-103.4396 5.7263,-102.7198 5.7263,-101.2802 11.683,-100.5604 11.683,-100.5604 136.8166,-85.4396 136.8166,-85.4396 142.7733,-84.7198 154.6866,-84.7198 160.6433,-85.4396 160.6433,-85.4396 285.7769,-100.5604 285.7769,-100.5604 291.7336,-101.2802 291.7336,-102.7198 285.7769,-103.4396 285.7769,-103.4396 160.6433,-118.5604 160.6433,-118.5604 154.6866,-119.2802 142.7733,-119.2802 136.8166,-118.5604"/>
<text text-anchor="middle" x="148.73" y="-99" font-family="Arial" font-size="10.00" fill="#000000">All vertices visited? (MST complete)</text>
</g>
<!-- is_visited&#45;&gt;complete -->
<g id="edge7" class="edge">
<title>is_visited-&gt;complete</title>
<path fill="none" stroke="#000000" d="M280.3969,-171.5599C254.198,-157.7189 214.4663,-136.7286 185.5011,-121.4263"/>
<polygon fill="#000000" stroke="#000000" points="186.9828,-118.2507 176.5059,-116.6741 183.7129,-124.44 186.9828,-118.2507"/>
<text text-anchor="middle" x="246.344" y="-141" font-family="Arial" font-size="10.00" fill="#000000">Yes</text>
</g>
<!-- add_to_mst&#45;&gt;add_edges -->
<g id="edge8" class="edge">
<title>add_to_mst-&gt;add_edges</title>
<path fill="none" stroke="#000000" d="M464.363,-120.2679C462.5611,-140.8436 458.7622,-175.1739 451.73,-204 443.5674,-237.4596 441.2408,-246.2496 425.73,-277 420.8322,-286.7099 414.5085,-296.7458 408.4791,-305.5438"/>
<polygon fill="#000000" stroke="#000000" points="405.5103,-303.6807 402.6115,-313.8713 411.2325,-307.7126 405.5103,-303.6807"/>
</g>
<!-- complete&#45;&gt;pop_edge -->
<g id="edge10" class="edge">
<title>complete-&gt;pop_edge</title>
<path fill="none" stroke="#000000" d="M143.605,-119.3916C138.2697,-141.335 132.9588,-179.1964 150.952,-204 160.2001,-216.7485 190.0864,-228.6288 221.3207,-238.0617"/>
<polygon fill="#000000" stroke="#000000" points="220.4553,-241.4552 231.036,-240.9089 222.4239,-234.7377 220.4553,-241.4552"/>
<text text-anchor="middle" x="158.119" y="-183" font-family="Arial" font-size="10.00" fill="#000000">No</text>
</g>
<!-- end -->
<g id="node9" class="node">
<title>end</title>
<path fill="none" stroke="#000000" d="M163.73,-36C163.73,-36 133.73,-36 133.73,-36 127.73,-36 121.73,-30 121.73,-24 121.73,-24 121.73,-12 121.73,-12 121.73,-6 127.73,0 133.73,0 133.73,0 163.73,0 163.73,0 169.73,0 175.73,-6 175.73,-12 175.73,-12 175.73,-24 175.73,-24 175.73,-30 169.73,-36 163.73,-36"/>
<text text-anchor="middle" x="148.73" y="-15" font-family="Arial" font-size="10.00" fill="#000000">End</text>
</g>
<!-- complete&#45;&gt;end -->
<g id="edge9" class="edge">
<title>complete-&gt;end</title>
<path fill="none" stroke="#000000" d="M148.73,-83.7733C148.73,-72.8758 148.73,-58.7946 148.73,-46.4587"/>
<polygon fill="#000000" stroke="#000000" points="152.2301,-46.1911 148.73,-36.1912 145.2301,-46.1912 152.2301,-46.1911"/>
<text text-anchor="middle" x="157.344" y="-57" font-family="Arial" font-size="10.00" fill="#000000">Yes</text>
</g>
</g>
</svg>