<?xml version="1.0" encoding="UTF-8" standalone="no"?><!DOCTYPE svg PUBLIC "-//W3C//DTD SVG 1.1//EN" "http://www.w3.org/Graphics/SVG/1.1/DTD/svg11.dtd"><!-- Generated by graphviz version 2.40.1 (20161225.0304)
 --><!-- Title: G Pages: 1 --><svg xmlns="http://www.w3.org/2000/svg" xmlns:xlink="http://www.w3.org/1999/xlink" width="135pt" height="332pt" viewBox="0.00 0.00 135.00 332.00">
<g id="graph0" class="graph" transform="scale(1 1) rotate(0) translate(4 328)">
<title>G</title>
<polygon fill="#ffffff" stroke="transparent" points="-4,4 -4,-328 131,-328 131,4 -4,4"/>
<!-- 0 -->
<g id="node1" class="node">
<title>0</title>
<ellipse fill="none" stroke="#000000" cx="100" cy="-306" rx="27" ry="18"/>
<text text-anchor="middle" x="100" y="-301.8" font-family="Times,serif" font-size="14.00" fill="#000000">0</text>
</g>
<!-- 1 -->
<g id="node2" class="node">
<title>1</title>
<ellipse fill="none" stroke="#000000" cx="73" cy="-234" rx="27" ry="18"/>
<text text-anchor="middle" x="73" y="-229.8" font-family="Times,serif" font-size="14.00" fill="#000000">1</text>
</g>
<!-- 0&#45;&#45;1 -->
<g id="edge1" class="edge">
<title>0--1</title>
<path fill="none" stroke="#000000" d="M93.3258,-288.2022C89.1407,-277.0419 83.7679,-262.7143 79.5974,-251.593"/>
</g>
<!-- 4 -->
<g id="node3" class="node">
<title>4</title>
<ellipse fill="none" stroke="#000000" cx="100" cy="-18" rx="27" ry="18"/>
<text text-anchor="middle" x="100" y="-13.8" font-family="Times,serif" font-size="14.00" fill="#000000">4</text>
</g>
<!-- 0&#45;&#45;4 -->
<g id="edge2" class="edge">
<title>0--4</title>
<path fill="none" stroke="#000000" d="M103.7474,-288.0931C105.7466,-277.6241 107.9966,-264.1241 109,-252 115.5984,-172.2726 115.5984,-151.7274 109,-72 107.9966,-59.8759 105.7466,-46.3759 103.7474,-35.9069"/>
</g>
<!-- 2 -->
<g id="node4" class="node">
<title>2</title>
<ellipse fill="none" stroke="#000000" cx="27" cy="-162" rx="27" ry="18"/>
<text text-anchor="middle" x="27" y="-157.8" font-family="Times,serif" font-size="14.00" fill="#000000">2</text>
</g>
<!-- 1&#45;&#45;2 -->
<g id="edge3" class="edge">
<title>1--2</title>
<path fill="none" stroke="#000000" d="M62.3311,-217.3008C54.8996,-205.669 45.0298,-190.2206 37.6111,-178.6087"/>
</g>
<!-- 3 -->
<g id="node5" class="node">
<title>3</title>
<ellipse fill="none" stroke="#000000" cx="73" cy="-90" rx="27" ry="18"/>
<text text-anchor="middle" x="73" y="-85.8" font-family="Times,serif" font-size="14.00" fill="#000000">3</text>
</g>
<!-- 1&#45;&#45;3 -->
<g id="edge4" class="edge">
<title>1--3</title>
<path fill="none" stroke="#000000" d="M73,-215.7623C73,-188.0633 73,-135.7005 73,-108.0896"/>
</g>
<!-- 2&#45;&#45;3 -->
<g id="edge5" class="edge">
<title>2--3</title>
<path fill="none" stroke="#000000" d="M37.6689,-145.3008C45.1004,-133.669 54.9702,-118.2206 62.3889,-106.6087"/>
</g>
<!-- 3&#45;&#45;4 -->
<g id="edge6" class="edge">
<title>3--4</title>
<path fill="none" stroke="#000000" d="M79.6742,-72.2022C83.8593,-61.0419 89.2321,-46.7143 93.4026,-35.593"/>
</g>
</g>
</svg>