<?xml version="1.0" encoding="UTF-8" standalone="no"?><!DOCTYPE svg PUBLIC "-//W3C//DTD SVG 1.1//EN" "http://www.w3.org/Graphics/SVG/1.1/DTD/svg11.dtd"><!-- Generated by graphviz version 2.40.1 (20161225.0304)
 --><!-- Title: LF Pages: 1 --><svg xmlns="http://www.w3.org/2000/svg" xmlns:xlink="http://www.w3.org/1999/xlink" width="422pt" height="587pt" viewBox="0.00 0.00 421.51 586.60">
<g id="graph0" class="graph" transform="scale(1 1) rotate(0) translate(4 582.6)">
<title>LF</title>
<polygon fill="#ffffff" stroke="transparent" points="-4,4 -4,-582.6 417.5123,-582.6 417.5123,4 -4,4"/>
<!-- a -->
<g id="node1" class="node">
<title>a</title>
<ellipse fill="none" stroke="#000000" cx="182.4057" cy="-560.6" rx="29.049" ry="18"/>
<text text-anchor="middle" x="182.4057" y="-556.4" font-family="Times,serif" font-size="14.00" fill="#000000">Start</text>
</g>
<!-- b -->
<g id="node2" class="node">
<title>b</title>
<ellipse fill="none" stroke="#000000" cx="182.4057" cy="-487.6" rx="152.1505" ry="18"/>
<text text-anchor="middle" x="182.4057" y="-483.4" font-family="Times,serif" font-size="14.00" fill="#000000">Sort vertices by degree (descending)</text>
</g>
<!-- a&#45;&gt;b -->
<g id="edge1" class="edge">
<title>a-&gt;b</title>
<path fill="none" stroke="#000000" d="M182.4057,-542.5551C182.4057,-534.4828 182.4057,-524.7764 182.4057,-515.7817"/>
<polygon fill="#000000" stroke="#000000" points="185.9058,-515.6903 182.4057,-505.6904 178.9058,-515.6904 185.9058,-515.6903"/>
</g>
<!-- c -->
<g id="node3" class="node">
<title>c</title>
<ellipse fill="none" stroke="#000000" cx="182.4057" cy="-414.6" rx="136.5512" ry="18"/>
<text text-anchor="middle" x="182.4057" y="-410.4" font-family="Times,serif" font-size="14.00" fill="#000000">Initialize vertex-color dictionary</text>
</g>
<!-- b&#45;&gt;c -->
<g id="edge2" class="edge">
<title>b-&gt;c</title>
<path fill="none" stroke="#000000" d="M182.4057,-469.5551C182.4057,-461.4828 182.4057,-451.7764 182.4057,-442.7817"/>
<polygon fill="#000000" stroke="#000000" points="185.9058,-442.6903 182.4057,-432.6904 178.9058,-442.6904 185.9058,-442.6903"/>
</g>
<!-- d -->
<g id="node4" class="node">
<title>d</title>
<ellipse fill="none" stroke="#000000" cx="182.4057" cy="-341.6" rx="129.6399" ry="18"/>
<text text-anchor="middle" x="182.4057" y="-337.4" font-family="Times,serif" font-size="14.00" fill="#000000">For each vertex in sorted order</text>
</g>
<!-- c&#45;&gt;d -->
<g id="edge3" class="edge">
<title>c-&gt;d</title>
<path fill="none" stroke="#000000" d="M182.4057,-396.5551C182.4057,-388.4828 182.4057,-378.7764 182.4057,-369.7817"/>
<polygon fill="#000000" stroke="#000000" points="185.9058,-369.6903 182.4057,-359.6904 178.9058,-369.6904 185.9058,-369.6903"/>
</g>
<!-- e -->
<g id="node5" class="node">
<title>e</title>
<ellipse fill="none" stroke="#000000" cx="182.4057" cy="-268.6" rx="178.7289" ry="18"/>
<text text-anchor="middle" x="182.4057" y="-264.4" font-family="Times,serif" font-size="14.00" fill="#000000">Determine used colors for adjacent vertices</text>
</g>
<!-- d&#45;&gt;e -->
<g id="edge4" class="edge">
<title>d-&gt;e</title>
<path fill="none" stroke="#000000" d="M182.4057,-323.5551C182.4057,-315.4828 182.4057,-305.7764 182.4057,-296.7817"/>
<polygon fill="#000000" stroke="#000000" points="185.9058,-296.6903 182.4057,-286.6904 178.9058,-296.6904 185.9058,-296.6903"/>
</g>
<!-- f -->
<g id="node6" class="node">
<title>f</title>
<ellipse fill="none" stroke="#000000" cx="182.4057" cy="-179.8" rx="182.3115" ry="18"/>
<text text-anchor="middle" x="182.4057" y="-175.6" font-family="Times,serif" font-size="14.00" fill="#000000">Assign the lowest unused color to the vertex</text>
</g>
<!-- e&#45;&gt;f -->
<g id="edge5" class="edge">
<title>e-&gt;f</title>
<path fill="none" stroke="#000000" d="M182.4057,-250.2006C182.4057,-238.0949 182.4057,-222.0076 182.4057,-208.2674"/>
<polygon fill="#000000" stroke="#000000" points="185.9058,-207.872 182.4057,-197.872 178.9058,-207.8721 185.9058,-207.872"/>
</g>
<!-- g -->
<g id="node7" class="node">
<title>g</title>
<polygon fill="none" stroke="#000000" points="182.4057,-124.8 53.178,-106.8 182.4057,-88.8 311.6335,-106.8 182.4057,-124.8"/>
<text text-anchor="middle" x="182.4057" y="-102.6" font-family="Times,serif" font-size="14.00" fill="#000000">All vertices colored?</text>
</g>
<!-- f&#45;&gt;g -->
<g id="edge6" class="edge">
<title>f-&gt;g</title>
<path fill="none" stroke="#000000" d="M182.4057,-161.7551C182.4057,-153.6828 182.4057,-143.9764 182.4057,-134.9817"/>
<polygon fill="#000000" stroke="#000000" points="185.9058,-134.8903 182.4057,-124.8904 178.9058,-134.8904 185.9058,-134.8903"/>
</g>
<!-- g&#45;&gt;d -->
<g id="edge8" class="edge">
<title>g-&gt;d</title>
<path fill="none" stroke="#000000" d="M244.0436,-116.3719C293.6798,-125.4875 357.6865,-140.9155 373.4057,-161.8 406.7712,-206.1291 404.4222,-242.7684 370.4057,-286.6 357.8111,-302.8288 315.2328,-315.9894 273.7764,-325.3633"/>
<polygon fill="#000000" stroke="#000000" points="272.8602,-321.981 263.8436,-327.5444 274.3616,-328.8181 272.8602,-321.981"/>
<text text-anchor="middle" x="404.959" y="-220" font-family="Times,serif" font-size="14.00" fill="#000000">No</text>
</g>
<!-- h -->
<g id="node8" class="node">
<title>h</title>
<ellipse fill="none" stroke="#000000" cx="182.4057" cy="-18" rx="27" ry="18"/>
<text text-anchor="middle" x="182.4057" y="-13.8" font-family="Times,serif" font-size="14.00" fill="#000000">End</text>
</g>
<!-- g&#45;&gt;h -->
<g id="edge7" class="edge">
<title>g-&gt;h</title>
<path fill="none" stroke="#000000" d="M182.4057,-88.4006C182.4057,-76.2949 182.4057,-60.2076 182.4057,-46.4674"/>
<polygon fill="#000000" stroke="#000000" points="185.9058,-46.072 182.4057,-36.072 178.9058,-46.0721 185.9058,-46.072"/>
<text text-anchor="middle" x="193.2886" y="-58.2" font-family="Times,serif" font-size="14.00" fill="#000000">Yes</text>
</g>
</g>
</svg>